<svg width="16" height="16" viewBox="0 0 16 16" fill="none" xmlns="http://www.w3.org/2000/svg">
<path d="M6 13H10C10.0023 13.519 9.80281 14.0185 9.44362 14.3932C9.08443 14.7678 8.59368 14.9881 8.07506 15.0075C7.55644 15.027 7.05055 14.8441 6.66428 14.4975C6.27801 14.1509 6.0416 13.6677 6.005 13.15L6 13ZM8 1C9.06087 1 10.0783 1.42143 10.8284 2.17157C11.5786 2.92172 12 3.93913 12 5V8.03L13.684 9.608C13.7838 9.70159 13.8634 9.81466 13.9177 9.94023C13.9721 10.0658 14.0001 10.2012 14 10.338V11C14 11.2652 13.8946 11.5196 13.7071 11.7071C13.5196 11.8946 13.2652 12 13 12H3C2.73478 12 2.48043 11.8946 2.29289 11.7071C2.10536 11.5196 2 11.2652 2 11V10.338C1.99993 10.2012 2.02794 10.0658 2.08229 9.94023C2.13665 9.81466 2.21619 9.70159 2.316 9.608L4 8.03V5C4 3.93913 4.42143 2.92172 5.17157 2.17157C5.92172 1.42143 6.93913 1 8 1Z" fill="currentColor"/>
</svg>
