<svg width="16" height="16" viewBox="0 0 16 16" fill="none" xmlns="http://www.w3.org/2000/svg">
<path d="M7 7C8.38125 7 9.5 5.88125 9.5 4.5C9.5 3.11875 8.38125 2 7 2C5.61875 2 4.5 3.11875 4.5 4.5C4.5 5.88125 5.61875 7 7 7Z" fill="currentColor"/>
<path fill-rule="evenodd" clip-rule="evenodd" d="M6.99999 8C5.66499 8 3 8.89333 3 10.6667V11.3333C3 11.7 3.225 12 3.5 12H3.98967C4.01089 11.9415 4.04529 11.8873 4.0926 11.8425L7.21777 8.88444C7.2896 8.81658 7.38291 8.77917 7.47954 8.77949C7.69453 8.78018 7.8682 8.96356 7.86747 9.1891L7.86208 10.629C9.00547 10.5858 10.0365 10.4354 10.944 10.231C10.5538 8.74706 8.22081 8 6.99999 8Z" fill="currentColor"/>
<path d="M6.72507 14.718C6.80605 14.7834 6.91763 14.7955 7.0107 14.749C7.10403 14.7036 7.16317 14.6087 7.16291 14.5047L7.16046 13.7849C11.4352 13.5894 12.9723 10.3023 12.9722 10.2563C12.9722 10.1147 12.8634 9.99711 12.7225 9.98627L12.7009 9.98635C12.5685 9.9869 12.4561 10.0833 12.4351 10.2142C12.4303 10.2413 10.4816 11.623 7.1536 11.7666L7.15036 10.8116C7.14977 10.662 7.02825 10.5412 6.87892 10.5418C6.8118 10.5421 6.74717 10.5674 6.69761 10.6127L4.54125 12.5896C4.43113 12.6906 4.42363 12.862 4.52449 12.9723C4.53424 12.9829 4.54484 12.9928 4.55617 13.0018L6.72507 14.718Z" fill="currentColor"/>
</svg>
