<svg width="16" height="16" viewBox="0 0 16 16" fill="none" xmlns="http://www.w3.org/2000/svg">
<path d="M7 6.99999C7.33244 7.00671 7.66289 6.94704 7.97199 6.82448C8.28109 6.70191 8.56263 6.51892 8.80014 6.28621C9.03765 6.0535 9.22635 5.77574 9.35519 5.46921C9.48403 5.16267 9.55043 4.83352 9.5505 4.501C9.55056 4.16849 9.4843 3.83931 9.35558 3.53272C9.22686 3.22613 9.03827 2.9483 8.80085 2.7155C8.56344 2.48269 8.28197 2.29959 7.97292 2.1769C7.66387 2.05421 7.33345 1.99441 7.001 2.00099C6.34675 2.01395 5.72365 2.28291 5.26549 2.75014C4.80733 3.21738 4.55063 3.84562 4.5505 4.5C4.55036 5.15439 4.80681 5.78273 5.26479 6.25015C5.72276 6.71756 6.34575 6.98678 7 6.99999ZM7 7.99999C5.665 7.99999 3 8.89299 3 10.667V11.333C3 11.7 3.225 12 3.5 12H5.549C6.453 11.091 7.966 10.089 10.276 9.99099V9.27099C10.2759 9.24979 10.2782 9.22865 10.283 9.20799C9.397 8.40399 7.898 7.99999 7 7.99999ZM11.427 10.028C11.4727 10.0053 11.524 9.9963 11.5747 10.002C11.6254 10.0076 11.6734 10.0278 11.713 10.06L13.876 11.783C13.9066 11.8075 13.9315 11.8383 13.949 11.8734C13.9665 11.9084 13.9763 11.9468 13.9775 11.986C13.9787 12.0252 13.9715 12.0641 13.9562 12.1002C13.9409 12.1363 13.918 12.1686 13.889 12.195L11.726 14.165C11.6873 14.2003 11.6391 14.2236 11.5874 14.232C11.5357 14.2405 11.4827 14.2337 11.4347 14.2125C11.3868 14.1913 11.3461 14.1566 11.3176 14.1126C11.289 14.0687 11.2739 14.0174 11.274 13.965V13.009C7.946 13.142 5.992 14.517 5.987 14.544C5.9768 14.6072 5.94444 14.6648 5.89571 14.7064C5.84699 14.748 5.78506 14.7709 5.721 14.771H5.699C5.63092 14.7657 5.56738 14.7348 5.52118 14.6845C5.47497 14.6342 5.44954 14.5683 5.45 14.5C5.45 14.454 6.999 11.172 11.274 10.991V10.271C11.2741 10.2202 11.2885 10.1705 11.3155 10.1275C11.3426 10.0845 11.3812 10.05 11.427 10.028Z" fill="currentColor"/>
</svg>
