<svg width="16" height="16" viewBox="0 0 16 16" fill="none" xmlns="http://www.w3.org/2000/svg">
<path d="M12.6429 7.69048L8.92926 11.4041C7.48165 12.8517 5.34348 13.0101 4.16668 11.8333C2.98734 10.654 3.14448 8.52219 4.59217 7.07451L8.00207 3.66461C8.93558 2.73109 10.2976 2.63095 11.0333 3.36667C11.7681 4.10139 11.6658 5.4675 10.7361 6.39727L7.32364 9.8097C6.90203 10.2313 6.32172 10.2741 6.02382 9.97619C5.72652 9.6789 5.7695 9.09718 6.19891 8.66776L9.29049 5.57619C9.56663 5.30005 9.56663 4.85233 9.29049 4.57619C9.01434 4.30005 8.56663 4.30005 8.29049 4.57619L5.19891 7.66776C4.24738 8.6193 4.13866 10.091 5.02382 10.9762C5.90951 11.8619 7.37985 11.7535 8.32364 10.8097L11.7361 7.39727C13.1876 5.94573 13.3564 3.68975 12.0333 2.36667C10.7099 1.04326 8.45783 1.20884 7.00207 2.66461L3.59217 6.07451C1.6223 8.04437 1.39956 11.0662 3.16668 12.8333C4.93147 14.5981 7.95961 14.3737 9.92926 12.4041L13.6429 8.69048C13.919 8.41433 13.919 7.96662 13.6429 7.69048C13.3667 7.41433 12.919 7.41433 12.6429 7.69048Z" fill="currentColor"/>
</svg>
