<svg width="16" height="16" viewBox="0 0 16 16" fill="none" xmlns="http://www.w3.org/2000/svg">
<path d="M1 14.5385C1 14.0364 1 13.7853 1.0881 13.5896C1.18838 13.3668 1.36677 13.1884 1.58959 13.0881C1.78534 13 2.03638 13 2.53846 13H2.68C2.79201 13 2.84802 13 2.8908 12.9782C2.92843 12.959 2.95903 12.9284 2.9782 12.8908C3 12.848 3 12.792 3 12.68V8.48C3 8.31198 3 8.22798 3.0327 8.1638C3.06146 8.10735 3.10735 8.06146 3.1638 8.0327C3.22798 8 3.31198 8 3.48 8H4.52C4.68802 8 4.77202 8 4.8362 8.0327C4.89265 8.06146 4.93854 8.10735 4.9673 8.1638C5 8.22798 5 8.31198 5 8.48V12.68C5 12.792 5 12.848 5.0218 12.8908C5.04097 12.9284 5.07157 12.959 5.1092 12.9782C5.15198 13 5.20799 13 5.32 13H6.68C6.79201 13 6.84802 13 6.8908 12.9782C6.92843 12.959 6.95903 12.9284 6.9782 12.8908C7 12.848 7 12.792 7 12.68V8.48C7 8.31198 7 8.22798 7.0327 8.1638C7.06146 8.10735 7.10735 8.06146 7.1638 8.0327C7.22798 8 7.31198 8 7.48 8H8.52C8.68802 8 8.77202 8 8.8362 8.0327C8.89265 8.06146 8.93854 8.10735 8.9673 8.1638C9 8.22798 9 8.31198 9 8.48V12.68C9 12.792 9 12.848 9.0218 12.8908C9.04097 12.9284 9.07157 12.959 9.1092 12.9782C9.15198 13 9.20799 13 9.32 13H10.68C10.792 13 10.848 13 10.8908 12.9782C10.9285 12.959 10.9591 12.9284 10.9782 12.8908C11 12.848 11 12.792 11 12.68V8.48C11 8.31198 11 8.22798 11.0327 8.1638C11.0615 8.10735 11.1074 8.06146 11.1638 8.0327C11.228 8 11.312 8 11.48 8H12.52C12.688 8 12.7721 8 12.8362 8.0327C12.8927 8.06146 12.9386 8.10735 12.9673 8.1638C13 8.22798 13 8.31198 13 8.48V12.68C13 12.792 13 12.848 13.0218 12.8908C13.041 12.9284 13.0716 12.959 13.1092 12.9782C13.152 13 13.208 13 13.32 13H13.4616C13.9637 13 14.2147 13 14.4104 13.0881C14.6333 13.1884 14.8116 13.3668 14.9119 13.5896C15 13.7853 15 14.0364 15 14.5385C15 14.6891 15 14.7644 14.9736 14.8231C14.9435 14.89 14.89 14.9435 14.8232 14.9736C14.7644 15 14.6891 15 14.5385 15H1.46154C1.31091 15 1.2356 15 1.17688 14.9736C1.11003 14.9435 1.05651 14.89 1.02643 14.8231C1 14.7644 1 14.6891 1 14.5385Z" fill="currentColor"/>
<path d="M7.69518 1.10369C7.8749 0.965437 8.12516 0.965437 8.30489 1.10369L14.8049 6.10369C14.9746 6.23422 15.0423 6.45831 14.9734 6.661C14.9045 6.86369 14.7141 7 14.5 7H1.50003C1.28594 7 1.0956 6.86369 1.02666 6.661C0.957723 6.45831 1.02548 6.23422 1.19518 6.10369L7.69518 1.10369Z" fill="currentColor"/>
</svg>
