<svg width="16" height="16" viewBox="0 0 16 16" fill="none" xmlns="http://www.w3.org/2000/svg">
<path d="M12.2228 5.28499C12.0696 3.75895 10.7663 3.25441 9.12356 3.11785L9.11472 1.50014C9.11322 1.22394 8.88805 1.00129 8.61186 1.00288L8.33981 1.00444C8.06372 1.00603 7.84117 1.23109 7.84269 1.50719L7.8513 3.06938C7.51686 3.07123 7.17511 3.07986 6.83549 3.08862L6.82705 1.51298C6.82557 1.23679 6.60044 1.01412 6.32426 1.01567L6.05288 1.01719C5.77681 1.01873 5.55423 1.24374 5.55569 1.51981L5.56419 3.13726C5.28888 3.14452 5.01839 3.15128 4.75471 3.15288L4.75451 3.14626L3.50032 3.15283C3.22409 3.15427 3.00137 3.37944 3.00294 3.65567L3.00504 4.02264C3.00663 4.30252 3.23766 4.52624 3.51752 4.52218C3.73538 4.51902 3.93897 4.51823 3.93168 4.52646C4.44685 4.5237 4.61625 4.82596 4.66656 5.08726L4.6798 7.49997C4.71532 7.49993 4.7617 7.50116 4.81433 7.50825C4.7719 7.50853 4.72668 7.50855 4.67993 7.50926L4.69803 10.8892C4.6764 11.0537 4.58252 11.3163 4.22251 11.3189C4.23116 11.3265 3.97432 11.3275 3.7292 11.3267C3.48137 11.3259 3.26913 11.5051 3.23031 11.7499L3.14572 12.2833C3.09739 12.588 3.33385 12.8633 3.64237 12.8616L4.7089 12.8556C5.01697 12.8543 5.3201 12.8579 5.61775 12.858L5.62715 14.5001C5.62873 14.7762 5.85379 14.9988 6.12988 14.9973L6.40067 14.9958C6.67682 14.9943 6.89945 14.7692 6.89793 14.493L6.88901 12.8737C7.23798 12.879 7.57555 12.88 7.90527 12.8778V14.5078C7.90527 14.784 8.12913 15.0078 8.40527 15.0078H8.67697C8.95312 15.0078 9.17697 14.784 9.17697 14.5078V12.8419C11.3149 12.7055 12.8087 12.1512 12.9834 10.1148C13.1245 8.47514 12.3599 7.7482 11.1443 7.45956C11.8798 7.0748 12.3368 6.40161 12.2228 5.28499ZM10.4681 9.87504C10.4775 11.4758 7.77204 11.3089 6.90994 11.3145L6.89478 8.47649C7.75711 8.47193 10.4591 8.20543 10.4681 9.87504ZM9.85458 5.87427C9.86217 7.33055 7.60576 7.17329 6.88767 7.17736L6.87372 4.60346C7.59181 4.5994 9.84609 4.35541 9.85458 5.87427Z" fill="currentColor"/>
</svg>
