<svg width="16" height="16" viewBox="0 0 16 16" fill="none" xmlns="http://www.w3.org/2000/svg">
<path d="M7.38661 9.00057C7.71798 9.00057 7.98661 9.2692 7.98661 9.60057L7.98502 10.5988C10.1616 10.8631 14.9866 11.5964 14.9866 12.0021C14.9866 12.3133 12.6533 12.7705 7.98682 13.3735L7.98661 14.488C7.98661 14.636 7.93192 14.7788 7.83304 14.8889C7.61165 15.1354 7.2323 15.1558 6.98574 14.9344L4.09858 12.3419C4.08791 12.3323 4.07778 12.3222 4.0682 12.3115C3.92061 12.1472 3.9342 11.8943 4.09858 11.7467L6.98574 9.15414C7.09585 9.05526 7.23862 9.00057 7.38661 9.00057ZM1.75 1.04C2.1297 1.04 2.44349 1.32215 2.49315 1.68823L2.5 1.79V14.2658C2.5 14.68 2.16421 15.0158 1.75 15.0158C1.3703 15.0158 1.05651 14.7337 1.00685 14.3676L1 14.2658V1.79C1 1.37578 1.33579 1.04 1.75 1.04ZM4.09331 1.01687L4.17021 1.04425L11.705 4.41925C12.0634 4.5798 12.0974 5.05958 11.7989 5.27748L11.7173 5.32617L4.18252 8.94982C3.87611 9.09719 3.5247 8.9024 3.47245 8.58186L3.46582 8.49923V1.50057C3.46582 1.16599 3.78416 0.934034 4.09331 1.01687Z" fill="currentColor"/>
</svg>
