<svg width="16" height="16" viewBox="0 0 16 16" fill="none" xmlns="http://www.w3.org/2000/svg">
<path d="M11.5658 9.00057C11.7138 9.00057 11.8566 9.05526 11.9667 9.15414L14.8539 11.7467C15.0182 11.8943 15.0318 12.1472 14.8842 12.3115C14.8747 12.3222 14.8645 12.3323 14.8539 12.3419L11.9667 14.9344C11.7201 15.1558 11.3408 15.1354 11.1194 14.8889C11.0205 14.7788 10.9658 14.636 10.9658 14.488L10.9656 13.3735C6.29908 12.7705 3.96582 12.3133 3.96582 12.0021C3.96582 11.5964 8.79085 10.8631 10.9674 10.5988L10.9658 9.60057C10.9658 9.2692 11.2345 9.00057 11.5658 9.00057ZM1.75 1.04C2.1297 1.04 2.44349 1.32215 2.49315 1.68823L2.5 1.79V14.2658C2.5 14.68 2.16421 15.0158 1.75 15.0158C1.3703 15.0158 1.05651 14.7337 1.00685 14.3676L1 14.2658V1.79C1 1.37578 1.33579 1.04 1.75 1.04ZM4.09331 1.01687L4.17021 1.04425L11.705 4.41925C12.0634 4.5798 12.0974 5.05958 11.7989 5.27748L11.7173 5.32617L4.18252 8.94982C3.87611 9.09719 3.5247 8.9024 3.47245 8.58186L3.46582 8.49923V1.50057C3.46582 1.16599 3.78416 0.934034 4.09331 1.01687Z" fill="currentColor"/>
</svg>
