<svg width="16" height="16" viewBox="0 0 16 16" fill="none" xmlns="http://www.w3.org/2000/svg">
<path d="M11.6928 7.38226C12.2306 6.86314 12.5983 6.20165 12.7498 5.48076C12.9012 4.75987 12.8297 4.01169 12.5442 3.33005C12.2586 2.6484 11.7718 2.06366 11.1447 1.64914C10.5177 1.23463 9.77827 1.00881 9.0193 1H3.76824C3.56449 1 3.36908 1.07845 3.22501 1.21809C3.08094 1.35774 3 1.54713 3 1.74462C3 1.9421 3.08094 2.1315 3.22501 2.27114C3.36908 2.41078 3.56449 2.48923 3.76824 2.48923H4.39082C4.43157 2.48923 4.47065 2.50493 4.49946 2.53285C4.52828 2.56078 4.54447 2.59866 4.54447 2.63816V13.3618C4.54447 13.4013 4.52828 13.4392 4.49946 13.4671C4.47065 13.4951 4.43157 13.5108 4.39082 13.5108H3.76824C3.56449 13.5108 3.36908 13.5892 3.22501 13.7289C3.08094 13.8685 3 14.0579 3 14.2554C3 14.4529 3.08094 14.6423 3.22501 14.7819C3.36908 14.9215 3.56449 15 3.76824 15H9.89141C10.8235 14.9924 11.7256 14.6804 12.4522 14.1144C13.1787 13.5485 13.6871 12.7616 13.8953 11.8811C14.1035 11.0005 13.9993 10.0775 13.5995 9.26144C13.1998 8.44533 12.5278 7.7837 11.6922 7.38346L11.6928 7.38226ZM9.0193 2.48923C9.6259 2.49882 10.2043 2.73911 10.6298 3.15828C11.0553 3.57745 11.2937 4.14192 11.2937 4.72994C11.2937 5.31796 11.0553 5.88242 10.6298 6.30159C10.2043 6.72076 9.6259 6.96105 9.0193 6.97064H6.23459C6.19384 6.97064 6.15476 6.95495 6.12595 6.92702C6.09713 6.89909 6.08094 6.86121 6.08094 6.82172V2.63935C6.08094 2.59985 6.09713 2.56197 6.12595 2.53405C6.15476 2.50612 6.19384 2.49043 6.23459 2.49043L9.0193 2.48923ZM9.89202 13.5096H6.23459C6.19384 13.5096 6.15476 13.4939 6.12595 13.466C6.09713 13.438 6.08094 13.4001 6.08094 13.3606V8.6088C6.08094 8.5693 6.09713 8.53142 6.12595 8.50349C6.15476 8.47557 6.19384 8.45988 6.23459 8.45988H9.0193C9.02975 8.45988 9.03959 8.45988 9.04942 8.45988H9.05741H9.89202C10.576 8.47006 11.2283 8.74055 11.7083 9.21294C12.1882 9.68533 12.4573 10.3217 12.4573 10.9847C12.4573 11.6477 12.1882 12.2841 11.7083 12.7565C11.2283 13.2289 10.576 13.4994 9.89202 13.5096Z" fill="currentColor"/>
</svg>
