<svg width="16" height="16" viewBox="0 0 16 16" fill="none" xmlns="http://www.w3.org/2000/svg">
<path d="M12.6229 11.528V5.66666C12.5954 4.93866 12.3116 4.29467 11.7624 3.744C11.2132 3.19333 10.5907 2.89467 9.87669 2.86667H8.9613V1L6.21514 3.8L8.9613 6.6V4.73333H9.87669C10.1238 4.752 10.3161 4.836 10.5083 5.02267C10.7005 5.20933 10.7829 5.41466 10.7921 5.66666V11.528C10.4436 11.7327 10.1712 12.049 10.0172 12.4278C9.86328 12.8067 9.83642 13.2268 9.94083 13.6228C10.0452 14.0188 10.2751 14.3685 10.5945 14.6176C10.914 14.8666 11.3053 15.0011 11.7075 15C12.1096 15.0011 12.5009 14.8666 12.8204 14.6176C13.1399 14.3685 13.3697 14.0188 13.4741 13.6228C13.5785 13.2268 13.5517 12.8067 13.3977 12.4278C13.2438 12.049 12.9714 11.7327 12.6229 11.528ZM11.7075 14.2533C11.1033 14.2533 10.609 13.74 10.609 13.1333C10.609 12.5267 11.1125 12.0133 11.7075 12.0133C12.3025 12.0133 12.8059 12.5267 12.8059 13.1333C12.8059 13.74 12.3025 14.2533 11.7075 14.2533ZM6.21514 3.8C6.21514 2.764 5.40045 1.93333 4.38436 1.93333C3.98219 1.93225 3.59093 2.0667 3.27144 2.31576C2.95195 2.56483 2.72213 2.91456 2.61772 3.31057C2.51332 3.70657 2.54018 4.12665 2.69412 4.50548C2.84807 4.88432 3.12047 5.20066 3.46898 5.40533V11.528C3.12047 11.7327 2.84807 12.049 2.69412 12.4278C2.54018 12.8067 2.51332 13.2268 2.61772 13.6228C2.72213 14.0188 2.95195 14.3685 3.27144 14.6176C3.59093 14.8666 3.98219 15.0011 4.38436 15C4.78654 15.0011 5.1778 14.8666 5.49729 14.6176C5.81678 14.3685 6.0466 14.0188 6.15101 13.6228C6.25541 13.2268 6.22855 12.8067 6.07461 12.4278C5.92066 12.049 5.64826 11.7327 5.29975 11.528V5.40533C5.83983 5.088 6.21514 4.49067 6.21514 3.8ZM5.48283 13.1333C5.48283 13.7493 4.97937 14.2533 4.38436 14.2533C3.78936 14.2533 3.2859 13.74 3.2859 13.1333C3.2859 12.5267 3.78936 12.0133 4.38436 12.0133C4.97937 12.0133 5.48283 12.5267 5.48283 13.1333ZM4.38436 4.92C3.78021 4.92 3.2859 4.40667 3.2859 3.8C3.2859 3.19333 3.78936 2.68 4.38436 2.68C4.97937 2.68 5.48283 3.19333 5.48283 3.8C5.48283 4.40667 4.97937 4.92 4.38436 4.92Z" fill="currentColor"/>
</svg>
