<svg width="16" height="16" viewBox="0 0 16 16" fill="none" xmlns="http://www.w3.org/2000/svg">
<path fill-rule="evenodd" clip-rule="evenodd" d="M3.33333 2.66667C3.33333 3.58714 2.58714 4.33333 1.66667 4.33333C0.746192 4.33333 0 3.58714 0 2.66667C0 1.74619 0.746192 1 1.66667 1C2.58714 1 3.33333 1.74619 3.33333 2.66667ZM15.3333 3.33469H5.66667C5.48986 3.33469 5.32029 3.26445 5.19526 3.13943C5.07024 3.0144 5 2.84484 5 2.66802C5 2.49121 5.07024 2.32164 5.19526 2.19662C5.32029 2.0716 5.48986 2.00136 5.66667 2.00136H15.3333C15.5101 2.00136 15.6797 2.0716 15.8047 2.19662C15.9298 2.32164 16 2.49121 16 2.66802C16 2.84484 15.9298 3.0144 15.8047 3.13943C15.6797 3.26445 15.5101 3.33469 15.3333 3.33469ZM1.66667 9.66665C2.58714 9.66665 3.33333 8.92045 3.33333 7.99998C3.33333 7.0795 2.58714 6.33331 1.66667 6.33331C0.746192 6.33331 0 7.0795 0 7.99998C0 8.92045 0.746192 9.66665 1.66667 9.66665ZM5.66667 7.33467H15.3333C15.5101 7.33467 15.6797 7.40491 15.8047 7.52993C15.9298 7.65496 16 7.82453 16 8.00134C16 8.17815 15.9298 8.34772 15.8047 8.47274C15.6797 8.59777 15.5101 8.668 15.3333 8.668H5.66667C5.48986 8.668 5.32029 8.59777 5.19526 8.47274C5.07024 8.34772 5 8.17815 5 8.00134C5 7.82453 5.07024 7.65496 5.19526 7.52993C5.32029 7.40491 5.48986 7.33467 5.66667 7.33467ZM1.66667 15C2.58714 15 3.33333 14.2538 3.33333 13.3334C3.33333 12.4129 2.58714 11.6667 1.66667 11.6667C0.746192 11.6667 0 12.4129 0 13.3334C0 14.2538 0.746192 15 1.66667 15ZM5.66667 12.668H15.3333C15.5101 12.668 15.6797 12.7382 15.8047 12.8633C15.9298 12.9883 16 13.1579 16 13.3347C16 13.5115 15.9298 13.681 15.8047 13.8061C15.6797 13.9311 15.5101 14.0013 15.3333 14.0013H5.66667C5.48986 14.0013 5.32029 13.9311 5.19526 13.8061C5.07024 13.681 5 13.5115 5 13.3347C5 13.1579 5.07024 12.9883 5.19526 12.8633C5.32029 12.7382 5.48986 12.668 5.66667 12.668Z" fill="currentColor"/>
</svg>
