<svg width="16" height="16" viewBox="0 0 16 16" fill="none" xmlns="http://www.w3.org/2000/svg">
<path d="M11 1C13.2091 1 15 2.79086 15 5V6.25C15 6.66421 14.6642 7 14.25 7C13.8358 7 13.5 6.66421 13.5 6.25V6H2.5V11C2.5 12.3807 3.61929 13.5 5 13.5H6.25C6.66421 13.5 7 13.8358 7 14.25C7 14.6642 6.66421 15 6.25 15H5C2.79086 15 1 13.2091 1 11V5C1 2.79086 2.79086 1 5 1H11Z" fill="currentColor"/>
<path d="M13.2633 8.13808L9.37793 12.0487C10.1422 12.2768 10.7617 12.8515 11.0497 13.5954L14.8764 9.74799C15.1693 9.4815 14.8839 8.6406 14.6178 8.37776C14.3395 8.10295 13.5148 7.82593 13.2633 8.13808Z" fill="currentColor"/>
<path d="M10.2505 14.3635C10.166 13.5465 9.48171 12.9178 8.66337 12.9077C8.41558 13.3992 8.16295 14.1567 8.01335 14.6377C7.94869 14.8456 8.12874 15.0407 8.34173 14.9926C8.90202 14.8662 9.82253 14.6304 10.2505 14.3635Z" fill="currentColor"/>
</svg>
