<svg width="16" height="16" viewBox="0 0 16 16" fill="none" xmlns="http://www.w3.org/2000/svg">
<path fill-rule="evenodd" clip-rule="evenodd" d="M15 5C15 2.79086 13.2091 1 11 1H5C2.79086 1 1 2.79086 1 5V11C1 13.2091 2.79086 15 5 15H6.25C6.66421 15 7 14.6642 7 14.25C7 13.8358 6.66421 13.5 6.25 13.5H5C3.61929 13.5 2.5 12.3807 2.5 11V6H13.5V6.25C13.5 6.66421 13.8358 7 14.25 7C14.6642 7 15 6.66421 15 6.25V5ZM11 7.25C10.5858 7.25 10.25 7.58579 10.25 8C10.25 8.41421 10.5858 8.75 11 8.75C12.2426 8.75 13.25 9.75736 13.25 11H12.6403C12.2622 11 12.0952 11.4761 12.3904 11.7123L13.7501 12.8001C13.8962 12.917 14.1038 12.917 14.2499 12.8001L15.6095 11.7123C15.9048 11.4761 15.7378 11 15.3597 11H14.75C14.75 8.92893 13.071 7.25 11 7.25ZM6.64029 11H7.24998C7.24998 13.0711 8.92891 14.75 11 14.75C11.4142 14.75 11.75 14.4142 11.75 14C11.75 13.5858 11.4142 13.25 11 13.25C9.75734 13.25 8.74998 12.2426 8.74998 11H9.35967C9.73778 11 9.9048 10.5239 9.60955 10.2877L8.24986 9.1999C8.10377 9.08303 7.89619 9.08303 7.7501 9.1999L6.39041 10.2877C6.09516 10.5239 6.26218 11 6.64029 11Z" fill="currentColor"/>
</svg>
