<svg width="16" height="16" viewBox="0 0 16 16" fill="none" xmlns="http://www.w3.org/2000/svg">
<path fill-rule="evenodd" clip-rule="evenodd" d="M15 5C15 2.79086 13.2091 1 11 1H5C2.79086 1 1 2.79086 1 5V11C1 13.2091 2.79086 15 5 15H6.25C6.66421 15 7 14.6642 7 14.25C7 13.8358 6.66421 13.5 6.25 13.5H5C3.61929 13.5 2.5 12.3807 2.5 11V6H13.5V6.25C13.5 6.66421 13.8358 7 14.25 7C14.6642 7 15 6.66421 15 6.25V5ZM11 13.5C11.4172 13.5 11.8106 13.3978 12.1564 13.2171L8.78295 9.84361C8.60221 10.1894 8.5 10.5828 8.5 11C8.5 12.3807 9.61929 13.5 11 13.5ZM9.84361 8.78295L13.2171 12.1564C13.3978 11.8106 13.5 11.4172 13.5 11C13.5 9.61929 12.3807 8.5 11 8.5C10.5828 8.5 10.1894 8.60221 9.84361 8.78295ZM11 15C13.2091 15 15 13.2091 15 11C15 8.79086 13.2091 7 11 7C8.79086 7 7 8.79086 7 11C7 13.2091 8.79086 15 11 15Z" fill="currentColor"/>
</svg>
