<svg width="16" height="16" viewBox="0 0 16 16" fill="none" xmlns="http://www.w3.org/2000/svg">
<g clip-path="url(#clip0_22_1381)">
<path d="M15.329 3.847C15.5067 3.84647 15.6769 3.77575 15.8026 3.65024C15.9283 3.52473 15.9992 3.35462 16 3.177C16.0002 3.08889 15.9829 3.00163 15.9492 2.92021C15.9155 2.8388 15.8661 2.76484 15.8037 2.70259C15.7414 2.64033 15.6674 2.59101 15.5859 2.55744C15.5044 2.52388 15.4171 2.50673 15.329 2.507H5.58904C5.41106 2.507 5.24034 2.57749 5.11421 2.70305C4.98808 2.82862 4.91683 2.99903 4.91603 3.177C4.9159 3.26519 4.93321 3.35254 4.96696 3.43402C5.00071 3.51549 5.05023 3.5895 5.11269 3.65176C5.17514 3.71403 5.24929 3.76334 5.33087 3.79684C5.41245 3.83035 5.49984 3.84739 5.58803 3.847H15.328H15.329ZM5.58803 7.866C5.41041 7.86652 5.24019 7.93725 5.1145 8.06276C4.98881 8.18826 4.91783 8.35837 4.91703 8.536C4.9169 8.6241 4.93418 8.71137 4.96786 8.79278C5.00155 8.8742 5.05099 8.94815 5.11333 9.01041C5.17568 9.07266 5.24971 9.12199 5.33117 9.15555C5.41264 9.18912 5.49993 9.20626 5.58803 9.206H15.328C15.5058 9.20574 15.6763 9.13513 15.8022 9.00959C15.9281 8.88405 15.9992 8.7138 16 8.536C16.0002 8.44789 15.9829 8.36063 15.9492 8.27921C15.9155 8.1978 15.8661 8.12384 15.8037 8.06159C15.7414 7.99933 15.6674 7.95001 15.5859 7.91644C15.5044 7.88288 15.4171 7.86573 15.329 7.866H5.58904H5.58803ZM15.329 13.226C15.5067 13.2263 15.6771 13.2969 15.8029 13.4225C15.9286 13.548 15.9995 13.7183 16 13.896C16.0002 13.9841 15.9829 14.0714 15.9492 14.1528C15.9155 14.2342 15.8661 14.3082 15.8037 14.3704C15.7414 14.4327 15.6674 14.482 15.5859 14.5156C15.5044 14.5491 15.4171 14.5663 15.329 14.566H5.58904C5.41098 14.5663 5.2401 14.4959 5.11392 14.3702C4.98774 14.2446 4.91656 14.074 4.91603 13.896C4.9159 13.8078 4.93321 13.7205 4.96696 13.639C5.00071 13.5575 5.05023 13.4835 5.11269 13.4212C5.17514 13.359 5.24929 13.3097 5.33087 13.2762C5.41245 13.2426 5.49984 13.2256 5.58803 13.226H15.328H15.329ZM3.81403 1.094C3.76066 1.05569 3.70026 1.02828 3.63629 1.01332C3.57232 0.998369 3.50603 0.996169 3.4412 1.00685C3.37638 1.01753 3.3143 1.04088 3.2585 1.07557C3.20271 1.11025 3.1543 1.15559 3.11603 1.209L1.57004 3.368L0.853035 2.653C0.759016 2.55938 0.631656 2.50694 0.498974 2.50722C0.366292 2.5075 0.239156 2.56048 0.145535 2.6545C0.0519136 2.74852 -0.00052431 2.87588 -0.000243007 3.00856C3.8296e-05 3.14124 0.0530158 3.26838 0.147035 3.362L0.965035 4.177C1.05526 4.26687 1.16392 4.3361 1.28351 4.37988C1.4031 4.42367 1.53076 4.44098 1.65769 4.43062C1.78462 4.42026 1.90779 4.38247 2.01869 4.31986C2.12959 4.25725 2.22558 4.17132 2.30003 4.068L3.93004 1.791C4.00709 1.68328 4.03825 1.54939 4.01669 1.41871C3.99513 1.28804 3.92261 1.17126 3.81504 1.094H3.81403ZM3.93004 7.198L2.30003 9.474C2.18758 9.62961 2.02741 9.74427 1.84387 9.80058C1.66032 9.85689 1.46341 9.85177 1.28304 9.786C1.16402 9.74234 1.05588 9.67343 0.966035 9.584L0.147035 8.768C0.0558138 8.67383 0.0052305 8.54759 0.00618054 8.41649C0.00713058 8.28538 0.0595379 8.1599 0.152114 8.06706C0.244691 7.97422 0.370028 7.92146 0.50113 7.92014C0.632232 7.91882 0.758607 7.96904 0.853035 8.06L1.57004 8.774L3.11603 6.615C3.19335 6.50719 3.31032 6.4345 3.44122 6.41294C3.57212 6.39137 3.70622 6.42269 3.81403 6.5C3.92185 6.57731 3.99453 6.69428 4.0161 6.82518C4.03766 6.95608 4.00635 7.09019 3.92903 7.198H3.93004ZM3.81403 11.66C3.76066 11.6217 3.70026 11.5943 3.63629 11.5793C3.57232 11.5644 3.50603 11.5622 3.4412 11.5729C3.37638 11.5835 3.3143 11.6069 3.2585 11.6416C3.20271 11.6763 3.1543 11.7216 3.11603 11.775L1.57004 13.935L0.853035 13.219C0.806481 13.1726 0.751253 13.1359 0.690503 13.1109C0.629753 13.0859 0.564672 13.0731 0.498974 13.0732C0.366292 13.0735 0.239156 13.1265 0.145535 13.2205C0.0519136 13.3145 -0.000524319 13.4419 -0.000243015 13.5746C3.82899e-05 13.7072 0.0530158 13.8344 0.147035 13.928L0.965035 14.743C1.05525 14.8327 1.16385 14.9018 1.28334 14.9455C1.40282 14.9891 1.53036 15.0064 1.65716 14.996C1.78396 14.9857 1.90701 14.9479 2.01782 14.8854C2.12863 14.8229 2.22458 14.7372 2.29904 14.634L3.92903 12.357C4.00609 12.2493 4.03725 12.1154 4.01569 11.9847C3.99413 11.854 3.92161 11.7373 3.81403 11.66Z" fill="currentColor"/>
</g>
<defs>
<clipPath id="clip0_22_1381">
<rect width="16" height="16" fill="white"/>
</clipPath>
</defs>
</svg>
