<svg width="16" height="16" viewBox="0 0 16 16" fill="none" xmlns="http://www.w3.org/2000/svg">
<path d="M6.93777 13.1924C6.78507 13.1918 6.63434 13.1578 6.49614 13.0928C6.35794 13.0279 6.2356 12.9335 6.13768 12.8163L3.23336 9.32795C3.14716 9.22562 3.08254 9.10692 3.0434 8.97897C3.00426 8.85103 2.9914 8.71649 3.0056 8.58345C3.01981 8.45041 3.06077 8.32161 3.12603 8.20481C3.1913 8.08801 3.27952 7.98562 3.38538 7.9038C3.6007 7.73605 3.8726 7.65819 4.14407 7.68653C4.41555 7.71487 4.6655 7.84722 4.84154 8.05581L6.84976 10.4561L12.2984 2.4552C12.4527 2.23027 12.6886 2.07436 12.956 2.02058C13.2234 1.9668 13.5013 2.01938 13.7305 2.16717C13.8474 2.23772 13.9485 2.33164 14.0274 2.44306C14.1064 2.55447 14.1614 2.68098 14.1892 2.81466C14.217 2.94835 14.2169 3.08633 14.1889 3.21997C14.1609 3.35361 14.1057 3.48003 14.0266 3.59133L7.80187 12.7363C7.71247 12.8687 7.59379 12.9786 7.45505 13.0577C7.3163 13.1368 7.1612 13.1829 7.00178 13.1924H6.93777Z" fill="currentColor"/>
</svg>
