<svg width="10" height="6" viewBox="0 0 10 6" fill="none" xmlns="http://www.w3.org/2000/svg">
<g clip-path="url(#clip0_14_38)">
<path d="M2.12771 0.841102C1.98764 0.707705 1.80097 0.634355 1.60756 0.636713C1.41415 0.639071 1.22933 0.716952 1.09255 0.853724C0.955782 0.990497 0.877902 1.17532 0.875543 1.36873C0.873185 1.56214 0.946536 1.74881 1.07993 1.88888L4.25993 5.06888C4.35714 5.16621 4.47258 5.24342 4.59965 5.2961C4.72672 5.34878 4.86293 5.37589 5.00049 5.37589C5.13805 5.37589 5.27425 5.34878 5.40132 5.2961C5.5284 5.24342 5.64384 5.16621 5.74104 5.06888L8.91993 1.88888C9.05333 1.74881 9.12668 1.56214 9.12432 1.36873C9.12196 1.17532 9.04408 0.990497 8.90731 0.853724C8.77054 0.716952 8.58571 0.639071 8.3923 0.636713C8.19889 0.634355 8.01222 0.707705 7.87216 0.841102L4.99993 3.7111L2.12771 0.841102Z" fill="currentColor"/>
</g>
<defs>
<clipPath id="clip0_14_38">
<rect width="10" height="5.55556" fill="white" transform="translate(0 0.222229)"/>
</clipPath>
</defs>
</svg>
