<svg width="16" height="16" viewBox="0 0 16 16" fill="none" xmlns="http://www.w3.org/2000/svg">
<path d="M2.507 2.24701L2.581 2.21001C2.69454 2.15332 2.82539 2.14192 2.94702 2.17813C3.06864 2.21435 3.17195 2.29545 3.236 2.40501L5.333 6.00001H4.333L2.314 2.97101C2.27479 2.912 2.24857 2.84533 2.23708 2.77542C2.22558 2.70552 2.22907 2.63396 2.24732 2.56551C2.26557 2.49705 2.29816 2.43326 2.34293 2.37835C2.3877 2.32344 2.44362 2.27867 2.507 2.24701ZM6.523 6.00001H7.458L6.192 2.52701C6.16786 2.46085 6.13002 2.40054 6.08096 2.35002C6.03189 2.2995 5.97271 2.25992 5.90729 2.23387C5.84186 2.20781 5.77167 2.19587 5.70131 2.19882C5.63095 2.20177 5.56201 2.21956 5.499 2.25101L5.424 2.28801C5.30942 2.34523 5.22116 2.44425 5.17744 2.56463C5.13371 2.68501 5.13785 2.81758 5.189 2.93501L6.523 6.00001ZM1 8.00001C1 7.73479 1.10536 7.48044 1.29289 7.2929C1.48043 7.10536 1.73478 7.00001 2 7.00001H14C14.2652 7.00001 14.5196 7.10536 14.7071 7.2929C14.8946 7.48044 15 7.73479 15 8.00001V9.00001H1V8.00001ZM1.083 10H14.917C14.6803 11.3981 13.9562 12.6672 12.8732 13.5824C11.7901 14.4976 10.418 14.9998 9 15H7C5.58203 14.9998 4.20991 14.4976 3.12685 13.5824C2.04378 12.6672 1.31972 11.3981 1.083 10Z" fill="currentColor"/>
</svg>
