<svg width="16" height="16" viewBox="0 0 16 16" fill="none" xmlns="http://www.w3.org/2000/svg">
<path d="M8.963 2.45199V3.61199C8.963 3.77199 8.833 3.90199 8.673 3.90299H5.193C5.11556 3.90299 5.04129 3.87223 4.98652 3.81747C4.93176 3.76271 4.901 3.68844 4.901 3.61099V2.45099C4.901 2.29099 5.031 2.15999 5.193 2.15999H5.633C5.66899 2.16019 5.70377 2.14699 5.73057 2.12296C5.75737 2.09893 5.77428 2.0658 5.778 2.02999C5.80933 1.7461 5.9443 1.48374 6.15705 1.29318C6.3698 1.10261 6.64538 0.997238 6.931 0.997238C7.21662 0.997238 7.4922 1.10261 7.70495 1.29318C7.9177 1.48374 8.05267 1.7461 8.084 2.02999C8.093 2.10399 8.155 2.15999 8.229 2.15999H8.672C8.832 2.15999 8.963 2.28999 8.963 2.45199ZM7.223 13.405C7.223 13.005 6.898 12.68 6.497 12.68H4.032C3.86694 12.6689 3.71296 12.593 3.60372 12.4688C3.49448 12.3445 3.43885 12.1821 3.449 12.017V4.56099C3.44145 4.41223 3.48651 4.26556 3.57629 4.1467C3.66608 4.02785 3.79484 3.9444 3.94 3.91099C3.97439 3.90408 4.00514 3.88501 4.02662 3.85728C4.04811 3.82956 4.05889 3.79502 4.057 3.75999C4.034 3.31299 4.027 2.82699 4.025 2.59299C4.02447 2.55462 4.00886 2.518 3.98154 2.49105C3.95421 2.4641 3.91738 2.44899 3.879 2.44899H2.875C2.76053 2.44847 2.64709 2.47051 2.54115 2.51386C2.43521 2.55721 2.33885 2.62101 2.25758 2.70163C2.17632 2.78224 2.11174 2.87808 2.06754 2.98367C2.02334 3.08926 2.00039 3.20253 2 3.31699V13.259C2 13.741 2.39 14.13 2.87 14.13H6.497C6.898 14.13 7.223 13.806 7.223 13.405ZM9.817 3.75999C9.81436 3.79552 9.82479 3.83078 9.84634 3.85915C9.86789 3.88751 9.89907 3.90702 9.934 3.91399C10.0765 3.94968 10.2022 4.03366 10.2897 4.15163C10.3773 4.2696 10.4212 4.41427 10.414 4.56099V5.37699C10.4139 5.56954 10.4902 5.75425 10.6263 5.8905C10.7623 6.02675 10.947 6.10336 11.1395 6.10349C11.332 6.10363 11.5168 6.02727 11.653 5.89121C11.7893 5.75515 11.8659 5.57054 11.866 5.37799V3.32099C11.866 3.08999 11.7742 2.86845 11.6109 2.7051C11.4475 2.54176 11.226 2.44999 10.995 2.44999H9.985C9.96579 2.44986 9.94674 2.45355 9.92897 2.46084C9.9112 2.46813 9.89505 2.47888 9.88147 2.49246C9.86788 2.50604 9.85713 2.52219 9.84984 2.53997C9.84255 2.55774 9.83887 2.57678 9.839 2.59599C9.841 2.87199 9.84 3.46599 9.817 3.75999ZM12.593 11.842C12.593 11.7094 12.5403 11.5822 12.4466 11.4884C12.3528 11.3947 12.2256 11.342 12.093 11.342H10.593C10.4604 11.342 10.3332 11.3947 10.2394 11.4884C10.1457 11.5822 10.093 11.7094 10.093 11.842C10.093 11.9746 10.1457 12.1018 10.2394 12.1955C10.3332 12.2893 10.4604 12.342 10.593 12.342H12.093C12.2256 12.342 12.3528 12.2893 12.4466 12.1955C12.5403 12.1018 12.593 11.9746 12.593 11.842ZM12.593 10.342C12.593 10.2094 12.5403 10.0822 12.4466 9.98844C12.3528 9.89467 12.2256 9.84199 12.093 9.84199H10.593C10.4604 9.84199 10.3332 9.89467 10.2394 9.98844C10.1457 10.0822 10.093 10.2094 10.093 10.342C10.093 10.4746 10.1457 10.6018 10.2394 10.6955C10.3332 10.7893 10.4604 10.842 10.593 10.842H12.093C12.2256 10.842 12.3528 10.7893 12.4466 10.6955C12.5403 10.6018 12.593 10.4746 12.593 10.342Z" fill="currentColor"/>
<path d="M13.667 7.357C13.5043 7.19394 13.311 7.06459 13.0982 6.97639C12.8854 6.88818 12.6573 6.84285 12.427 6.843H9.59399C9.12987 6.843 8.68475 7.02738 8.35656 7.35557C8.02837 7.68375 7.84399 8.12887 7.84399 8.593V12.843C7.84399 13.809 8.62699 14.593 9.59399 14.593H13.094C13.3238 14.593 13.5514 14.5477 13.7637 14.4598C13.976 14.3718 14.1689 14.2429 14.3314 14.0804C14.4939 13.9179 14.6228 13.725 14.7108 13.5127C14.7987 13.3004 14.844 13.0728 14.844 12.843V9.26C14.8443 8.79674 14.6609 8.35226 14.334 8.024L13.668 7.357H13.667ZM9.59299 8.343H12.428C12.4608 8.34294 12.4934 8.34936 12.5238 8.36189C12.5541 8.37441 12.5817 8.3928 12.605 8.416L13.27 9.083C13.2932 9.10626 13.3116 9.13387 13.3241 9.16424C13.3366 9.19461 13.3431 9.22715 13.343 9.26V12.842C13.343 12.9083 13.3167 12.9719 13.2698 13.0188C13.2229 13.0657 13.1593 13.092 13.093 13.092H9.59299C9.52669 13.092 9.4631 13.0657 9.41622 13.0188C9.36933 12.9719 9.34299 12.9083 9.34299 12.842V8.592C9.34299 8.5257 9.36933 8.46211 9.41622 8.41523C9.4631 8.36834 9.52669 8.342 9.59299 8.342V8.343Z" fill="currentColor"/>
</svg>
