<svg width="16" height="16" viewBox="0 0 16 16" fill="none" xmlns="http://www.w3.org/2000/svg">
<path fill-rule="evenodd" clip-rule="evenodd" d="M15 8C15 11.866 11.866 15 8 15C4.13401 15 1 11.866 1 8C1 4.13401 4.13401 1 8 1C11.866 1 15 4.13401 15 8ZM13.5 8C13.5 11.0376 11.0376 13.5 8 13.5C4.96243 13.5 2.5 11.0376 2.5 8C2.5 4.96243 4.96243 2.5 8 2.5C11.0376 2.5 13.5 4.96243 13.5 8Z" fill="currentColor"/>
<path d="M8.75 5C8.75 4.58579 8.41421 4.25 8 4.25C7.58579 4.25 7.25 4.58579 7.25 5V8C7.25 8.41421 7.58579 8.75 8 8.75H11C11.4142 8.75 11.75 8.41421 11.75 8C11.75 7.58579 11.4142 7.25 11 7.25H8.75V5Z" fill="currentColor"/>
</svg>
