<svg width="16" height="16" viewBox="0 0 16 16" fill="none" xmlns="http://www.w3.org/2000/svg">
<g clip-path="url(#clip0_22_1399)">
<path d="M1.01601 1C0.817099 1 0.626333 1.07902 0.485681 1.21967C0.345029 1.36032 0.266011 1.55109 0.266011 1.75C0.266011 1.94891 0.345029 2.13968 0.485681 2.28033C0.626333 2.42098 0.817099 2.5 1.01601 2.5H15.25C15.4489 2.5 15.6397 2.42098 15.7803 2.28033C15.921 2.13968 16 1.94891 16 1.75C16 1.55109 15.921 1.36032 15.7803 1.21967C15.6397 1.07902 15.4489 1 15.25 1H1.01601ZM12.2 7.25C12.0011 7.25 11.8103 7.32902 11.6697 7.46967C11.529 7.61032 11.45 7.80109 11.45 8C11.45 8.19891 11.529 8.38968 11.6697 8.53033C11.8103 8.67098 12.0011 8.75 12.2 8.75H15.25C15.4489 8.75 15.6397 8.67098 15.7803 8.53033C15.921 8.38968 16 8.19891 16 8C16 7.80109 15.921 7.61032 15.7803 7.46967C15.6397 7.32902 15.4489 7.25 15.25 7.25H12.2ZM0.266011 14.25C0.266011 14.0511 0.345029 13.8603 0.485681 13.7197C0.626333 13.579 0.817099 13.5 1.01601 13.5H15.25C15.4489 13.5 15.6397 13.579 15.7803 13.7197C15.921 13.8603 16 14.0511 16 14.25C16 14.4489 15.921 14.6397 15.7803 14.7803C15.6397 14.921 15.4489 15 15.25 15H1.01601C0.817099 15 0.626333 14.921 0.485681 14.7803C0.345029 14.6397 0.266011 14.4489 0.266011 14.25ZM9.10501 8.3C9.07576 8.37264 9.03262 8.43888 8.97801 8.495L7.10001 10.418C7.04566 10.4717 6.98125 10.5141 6.91047 10.5428C6.83969 10.5715 6.76393 10.5859 6.68756 10.5853C6.61118 10.5846 6.53568 10.5689 6.4654 10.539C6.39512 10.5091 6.33144 10.4656 6.27801 10.411C6.16797 10.2988 6.10567 10.1483 6.10418 9.99111C6.10269 9.83394 6.16212 9.6823 6.27001 9.568L7.56601 8.24C7.61048 8.19458 7.63538 8.13356 7.63538 8.07C7.63538 8.00644 7.61048 7.94542 7.56601 7.9L6.27001 6.572C6.21342 6.5162 6.16847 6.44972 6.13774 6.37643C6.10702 6.30313 6.09113 6.22447 6.09101 6.145C6.09002 5.98471 6.15175 5.83039 6.26301 5.715C6.31773 5.65912 6.38308 5.61476 6.45522 5.58453C6.52735 5.55431 6.6048 5.53882 6.68301 5.539C6.76132 5.5395 6.83869 5.55599 6.9104 5.58746C6.98211 5.61893 7.04663 5.66471 7.10001 5.722L8.97701 7.645C9.08779 7.75859 9.14925 7.91133 9.14801 8.07C9.14826 8.14878 9.13432 8.22687 9.10501 8.3ZM2.87801 5.722C2.82391 5.66668 2.75938 5.62263 2.68814 5.59242C2.61691 5.56221 2.54039 5.54643 2.46301 5.546C2.38571 5.54595 2.30919 5.56151 2.23805 5.59175C2.16691 5.622 2.10261 5.6663 2.04901 5.722L0.172011 7.645C0.0608635 7.75843 -0.000958591 7.91119 1.12406e-05 8.07C0.000212973 8.22858 0.0618629 8.38091 0.172011 8.495L2.04901 10.418C2.10264 10.4747 2.16707 10.5201 2.23851 10.5515C2.30996 10.583 2.38697 10.5998 2.46501 10.601C2.54332 10.6019 2.62098 10.5867 2.69321 10.5564C2.76544 10.5262 2.83071 10.4814 2.88501 10.425C2.94065 10.3682 2.98449 10.301 3.01402 10.2272C3.04354 10.1534 3.05815 10.0745 3.05701 9.995C3.05535 9.83476 2.99111 9.68152 2.87801 9.568L1.58201 8.24C1.53755 8.19458 1.51265 8.13356 1.51265 8.07C1.51265 8.00644 1.53755 7.94542 1.58201 7.9L2.87801 6.572C2.98916 6.45857 3.05098 6.30581 3.05001 6.147C3.04981 5.98842 2.98816 5.83609 2.87801 5.722ZM4.10601 10.834C3.96586 10.8348 3.83009 10.7852 3.72358 10.6941C3.61706 10.603 3.54692 10.4766 3.52601 10.338C3.51225 10.2601 3.51361 10.1804 3.53001 10.103L4.46901 5.776C4.50214 5.62132 4.59482 5.48589 4.72701 5.399C4.79185 5.3562 4.86468 5.32696 4.94111 5.31304C5.01754 5.29912 5.096 5.30081 5.17176 5.318C5.24753 5.33519 5.31903 5.36752 5.38197 5.41307C5.44491 5.45861 5.49799 5.51641 5.53801 5.583C5.62185 5.71851 5.64981 5.88128 5.61601 6.037L4.67801 10.364C4.64926 10.4966 4.57669 10.6157 4.47201 10.702C4.36889 10.7869 4.23958 10.8335 4.10601 10.834Z" fill="currentColor"/>
</g>
<defs>
<clipPath id="clip0_22_1399">
<rect width="16" height="16" fill="white"/>
</clipPath>
</defs>
</svg>
