<svg width="16" height="16" viewBox="0 0 16 16" fill="none" xmlns="http://www.w3.org/2000/svg">
<path fill-rule="evenodd" clip-rule="evenodd" d="M3.12005 5.598C3.10556 5.52549 3.10733 5.45067 3.12523 5.37892C3.14314 5.30718 3.17674 5.2403 3.2236 5.1831C3.27047 5.1259 3.32944 5.07981 3.39626 5.04815C3.46309 5.01649 3.5361 5.00004 3.61005 5H12.39C12.464 5.00004 12.537 5.01649 12.6038 5.04815C12.6707 5.07981 12.7296 5.1259 12.7765 5.1831C12.8234 5.2403 12.857 5.30718 12.8749 5.37892C12.8928 5.45067 12.8945 5.52549 12.88 5.598L11.16 14.196C11.1148 14.4226 10.9924 14.6265 10.8137 14.7731C10.6351 14.9197 10.4111 14.9999 10.18 15H5.82005C5.58896 14.9999 5.36505 14.9197 5.18639 14.7731C5.00772 14.6265 4.88534 14.4226 4.84005 14.196L3.12005 5.598ZM10 9C10 9.53043 9.78934 10.0391 9.41426 10.4142C9.03919 10.7893 8.53048 11 8.00005 11C7.46962 11 6.96091 10.7893 6.58584 10.4142C6.21076 10.0391 6.00005 9.53043 6.00005 9C6.00005 8.46957 6.21076 7.96086 6.58584 7.58579C6.96091 7.21071 7.46962 7 8.00005 7C8.53048 7 9.03919 7.21071 9.41426 7.58579C9.78934 7.96086 10 8.46957 10 9Z" fill="currentColor"/>
<path d="M11.5 1C11.6326 1 11.7598 1.05268 11.8536 1.14645C11.9473 1.24021 12 1.36739 12 1.5C12 1.63261 12.0527 1.75979 12.1464 1.85355C12.2402 1.94732 12.3674 2 12.5 2H13C13.2652 2 13.5196 2.10536 13.7071 2.29289C13.8946 2.48043 14 2.73478 14 3V3.5C14 3.63261 13.9473 3.75979 13.8536 3.85355C13.7598 3.94732 13.6326 4 13.5 4H2.5C2.36739 4 2.24021 3.94732 2.14645 3.85355C2.05268 3.75979 2 3.63261 2 3.5V3C2 2.73478 2.10536 2.48043 2.29289 2.29289C2.48043 2.10536 2.73478 2 3 2H3.5C3.63261 2 3.75979 1.94732 3.85355 1.85355C3.94732 1.75979 4 1.63261 4 1.5C4 1.36739 4.05268 1.24021 4.14645 1.14645C4.24021 1.05268 4.36739 1 4.5 1H11.5Z" fill="currentColor"/>
</svg>
