<svg width="16" height="16" viewBox="0 0 16 16" fill="none" xmlns="http://www.w3.org/2000/svg">
<path d="M3.03104 10.7502C4.30296 10.7658 5.36645 11.7423 5.49783 13.0114C4.83268 13.426 3.40197 13.7922 2.53114 13.9886C2.2001 14.0632 1.92026 13.7602 2.02075 13.4373C2.25326 12.6902 2.64592 11.5136 3.03104 10.7502Z" fill="currentColor"/>
<path d="M13.7392 4.71631C14.1576 4.02948 14.0728 3.11738 13.4847 2.5219C12.8909 1.92072 11.9785 1.83892 11.2981 2.27649C11.8548 3.31132 12.7038 4.15999 13.7392 4.71631Z" fill="currentColor"/>
<path d="M10.1804 3.34195L4.1416 9.416C5.32942 9.77021 6.29232 10.6629 6.74002 11.8184L12.6876 5.8425C11.6641 5.22123 10.8042 4.36352 10.1804 3.34195Z" fill="currentColor"/>
</svg>
