<svg width="16" height="16" viewBox="0 0 16 16" fill="none" xmlns="http://www.w3.org/2000/svg">
<path d="M3.10849 6.53766L7.85023 1.16964C7.92984 1.07952 8.07041 1.07952 8.15002 1.16964L12.8917 6.53765C13.1021 6.77582 13.0399 7.14726 12.7633 7.3038L8.24643 9.86054C8.09362 9.94703 7.90663 9.94703 7.75383 9.86054L3.23693 7.3038C2.96037 7.14726 2.8981 6.77583 3.10849 6.53766Z" fill="currentColor"/>
<path d="M7.74826 11.353L3.02473 8.5976C2.82997 8.48399 2.62537 8.72932 2.7721 8.90051L7.92427 14.9114C7.96418 14.9579 8.03621 14.9579 8.07612 14.9114L13.2283 8.90051C13.375 8.72932 13.1704 8.48399 12.9757 8.5976L8.25213 11.353C8.09645 11.4438 7.90394 11.4438 7.74826 11.353Z" fill="currentColor"/>
</svg>
