<svg width="16" height="16" viewBox="0 0 16 16" fill="none" xmlns="http://www.w3.org/2000/svg">
<path d="M7.28 8.72C7.42045 8.86063 7.49934 9.05125 7.49934 9.25C7.49934 9.44875 7.42045 9.63937 7.28 9.78L5 12L6.25 13.25C6.25 13.4489 6.17098 13.6397 6.03033 13.7803C5.88968 13.921 5.69891 14 5.5 14H2.75C2.55109 14 2.36032 13.921 2.21967 13.7803C2.07902 13.6397 2 13.4489 2 13.25V10.5C2 10.3011 2.07902 10.1103 2.21967 9.96967C2.36032 9.82902 2.55109 9.75 2.75 9.75L4 11L6.22 8.72C6.36063 8.57955 6.55125 8.50066 6.75 8.50066C6.94875 8.50066 7.13937 8.57955 7.28 8.72ZM8.72 7.28C8.57955 7.13937 8.50066 6.94875 8.50066 6.75C8.50066 6.55125 8.57955 6.36063 8.72 6.22L11 4L9.75 2.75C9.75 2.55109 9.82902 2.36032 9.96967 2.21967C10.1103 2.07902 10.3011 2 10.5 2H13.25C13.4489 2 13.6397 2.07902 13.7803 2.21967C13.921 2.36032 14 2.55109 14 2.75V5.5C14 5.69891 13.921 5.88968 13.7803 6.03033C13.6397 6.17098 13.4489 6.25 13.25 6.25L12 5L9.78 7.28C9.63937 7.42045 9.44875 7.49934 9.25 7.49934C9.05125 7.49934 8.86063 7.42045 8.72 7.28Z" fill="currentColor"/>
</svg>
