<svg width="16" height="16" viewBox="0 0 16 16" fill="none" xmlns="http://www.w3.org/2000/svg">
<path d="M14.767 6.54L14.747 6.489L12.842 1.326C12.8054 1.22599 12.7377 1.14041 12.6487 1.0819C12.5597 1.0234 12.4543 0.99508 12.348 1.00114C12.2417 1.00719 12.1401 1.0473 12.0584 1.11553C11.9766 1.18376 11.919 1.27649 11.894 1.38L10.607 5.466H5.39701L4.11001 1.38C4.09065 1.30342 4.05341 1.23251 4.00136 1.1731C3.9493 1.11368 3.88391 1.06744 3.81054 1.03817C3.73717 1.0089 3.65791 0.997431 3.57925 1.0047C3.50059 1.01197 3.42478 1.03778 3.35801 1.08C3.26867 1.1396 3.20015 1.2256 3.16201 1.326L1.25201 6.486L1.23401 6.539C0.95953 7.28517 0.925609 8.09857 1.13701 8.865C1.34413 9.62435 1.78925 10.2973 2.40701 10.785L2.41401 10.79L2.43101 10.803L5.33401 13.06L6.77001 14.188L7.64501 14.874C7.74645 14.954 7.87185 14.9975 8.00101 14.9975C8.13018 14.9975 8.25558 14.954 8.35701 14.874L9.23101 14.188L10.667 13.06L13.587 10.79L13.595 10.783C14.2113 10.2953 14.6553 9.62319 14.862 8.865C15.0734 8.0997 15.0401 7.28748 14.767 6.542V6.54Z" fill="currentColor"/>
<path d="M14.767 6.54L14.747 6.489C13.8138 6.68897 12.9379 7.0975 12.185 7.684L8 10.97C9.425 12.09 10.666 13.062 10.666 13.062L13.586 10.792L13.594 10.785C14.2112 10.2974 14.656 9.62485 14.863 8.866C15.0744 8.09997 15.0408 7.286 14.767 6.54Z" fill="currentColor"/>
<path d="M5.33398 13.062L6.76998 14.19L7.64498 14.876C7.74642 14.956 7.87182 14.9995 8.00098 14.9995C8.13015 14.9995 8.25555 14.956 8.35698 14.876L9.23098 14.19L10.667 13.062C10.667 13.062 9.42498 12.086 7.99998 10.97C6.57498 12.086 5.33398 13.062 5.33398 13.062Z" fill="currentColor"/>
<path d="M3.81396 7.684C3.05595 7.094 2.18096 6.684 1.25296 6.486L1.23296 6.538C0.9588 7.28428 0.925229 8.09767 1.13696 8.864C1.34407 9.62335 1.78919 10.2963 2.40696 10.784L2.41396 10.789L2.43096 10.802L5.33396 13.059L7.99996 10.967L3.81396 7.684Z" fill="currentColor"/>
</svg>
