<svg width="16" height="16" viewBox="0 0 16 16" fill="none" xmlns="http://www.w3.org/2000/svg">
<path d="M7.674 12.088C7.61779 12.0317 7.54154 12.0001 7.462 12H2.572C2.49693 11.9999 2.42257 12.0145 2.35318 12.0432C2.28379 12.0718 2.22072 12.1139 2.1676 12.1669C2.11447 12.2199 2.07232 12.2829 2.04356 12.3523C2.0148 12.4216 2 12.4959 2 12.571C2 13.361 2.64 14 3.429 14H12.571C13.361 14 14 13.36 14 12.571C14 12.4196 13.9398 12.2743 13.8328 12.1672C13.7257 12.0602 13.5804 12 13.429 12H11.539C11.4994 11.9999 11.4603 12.0076 11.4237 12.0227C11.3872 12.0378 11.354 12.06 11.326 12.088L10.348 13.066C10.123 13.291 9.81775 13.4174 9.4995 13.4174C9.18125 13.4174 8.87604 13.291 8.651 13.066L7.674 12.088Z" fill="currentColor"/>
<path d="M2 6.75C2 5.49022 2.50044 4.28204 3.39124 3.39124C4.28204 2.50044 5.49022 2 6.75 2H9.25C10.5098 2 11.718 2.50044 12.6088 3.39124C13.4996 4.28204 14 5.49022 14 6.75C14 6.8163 13.9737 6.87989 13.9268 6.92678C13.8799 6.97366 13.8163 7 13.75 7H2.25C2.1837 7 2.12011 6.97366 2.07322 6.92678C2.02634 6.87989 2 6.8163 2 6.75ZM2.5 8.5C2.36739 8.5 2.24021 8.55268 2.14645 8.64645C2.05268 8.74021 2 8.86739 2 9V10C2 10.1326 2.05268 10.2598 2.14645 10.3536C2.24021 10.4473 2.36739 10.5 2.5 10.5H7.086C7.35119 10.5001 7.60551 10.6054 7.793 10.793L9.359 12.359C9.39647 12.3962 9.44716 12.4172 9.5 12.4172C9.55284 12.4172 9.60353 12.3962 9.641 12.359L11.207 10.793C11.3945 10.6054 11.6488 10.5001 11.914 10.5H13.5C13.6326 10.5 13.7598 10.4473 13.8536 10.3536C13.9473 10.2598 14 10.1326 14 10V9C14 8.86739 13.9473 8.74021 13.8536 8.64645C13.7598 8.55268 13.6326 8.5 13.5 8.5H2.5Z" fill="currentColor"/>
</svg>
