<svg width="16" height="16" viewBox="0 0 16 16" fill="none" xmlns="http://www.w3.org/2000/svg">
<path d="M4.729 9.086C4.85082 8.76648 5.06686 8.49153 5.3485 8.29759C5.63013 8.10364 5.96405 7.99986 6.306 8C6.479 8 6.647 8.053 6.789 8.152L7.427 8.599C7.59499 8.71645 7.79502 8.77944 8 8.77944C8.20498 8.77944 8.40501 8.71645 8.573 8.599L9.211 8.152C9.353 8.053 9.521 8 9.694 8C10.394 8 11.022 8.432 11.271 9.086L11.483 9.644C11.5406 9.79529 11.5607 9.95831 11.5414 10.1191C11.5221 10.2798 11.4641 10.4335 11.3723 10.5668C11.2806 10.7002 11.1578 10.8093 11.0146 10.8848C10.8713 10.9602 10.7119 10.9998 10.55 11H5.45C5.28802 10.9999 5.12848 10.9605 4.98511 10.8851C4.84174 10.8097 4.71882 10.7006 4.62694 10.5673C4.53506 10.4339 4.47695 10.2801 4.45763 10.1193C4.4383 9.95848 4.45833 9.79537 4.516 9.644L4.729 9.086ZM9 5.5C9 6.328 8.552 7 8 7C7.448 7 7 6.328 7 5.5C7 4.672 7.448 4 8 4C8.552 4 9 4.672 9 5.5ZM5.5 1C5.63261 1 5.75979 1.05268 5.85355 1.14645C5.94732 1.24021 6 1.36739 6 1.5C6 1.63261 5.94732 1.75979 5.85355 1.85355C5.75979 1.94732 5.63261 2 5.5 2H3.5C3.10218 2 2.72064 2.15804 2.43934 2.43934C2.15804 2.72064 2 3.10218 2 3.5V5.5C2 5.63261 1.94732 5.75979 1.85355 5.85355C1.75979 5.94732 1.63261 6 1.5 6C1.36739 6 1.24021 5.94732 1.14645 5.85355C1.05268 5.75979 1 5.63261 1 5.5V3.5C1 2.83696 1.26339 2.20107 1.73223 1.73223C2.20107 1.26339 2.83696 1 3.5 1H5.5ZM10.5 1C10.3674 1 10.2402 1.05268 10.1464 1.14645C10.0527 1.24021 10 1.36739 10 1.5C10 1.63261 10.0527 1.75979 10.1464 1.85355C10.2402 1.94732 10.3674 2 10.5 2H12.5C12.8978 2 13.2794 2.15804 13.5607 2.43934C13.842 2.72064 14 3.10218 14 3.5V5.5C14 5.63261 14.0527 5.75979 14.1464 5.85355C14.2402 5.94732 14.3674 6 14.5 6C14.6326 6 14.7598 5.94732 14.8536 5.85355C14.9473 5.75979 15 5.63261 15 5.5V3.5C15 2.83696 14.7366 2.20107 14.2678 1.73223C13.7989 1.26339 13.163 1 12.5 1H10.5ZM3.5 14H5.5C5.63261 14 5.75979 14.0527 5.85355 14.1464C5.94732 14.2402 6 14.3674 6 14.5C6 14.6326 5.94732 14.7598 5.85355 14.8536C5.75979 14.9473 5.63261 15 5.5 15H3.5C2.83696 15 2.20107 14.7366 1.73223 14.2678C1.26339 13.7989 1 13.163 1 12.5V10.5C1 10.3674 1.05268 10.2402 1.14645 10.1464C1.24021 10.0527 1.36739 10 1.5 10C1.63261 10 1.75979 10.0527 1.85355 10.1464C1.94732 10.2402 2 10.3674 2 10.5V12.5C2 12.8978 2.15804 13.2794 2.43934 13.5607C2.72064 13.842 3.10218 14 3.5 14ZM10.5 15C10.3674 15 10.2402 14.9473 10.1464 14.8536C10.0527 14.7598 10 14.6326 10 14.5C10 14.3674 10.0527 14.2402 10.1464 14.1464C10.2402 14.0527 10.3674 14 10.5 14H12.5C12.8978 14 13.2794 13.842 13.5607 13.5607C13.842 13.2794 14 12.8978 14 12.5V10.5C14 10.3674 14.0527 10.2402 14.1464 10.1464C14.2402 10.0527 14.3674 10 14.5 10C14.6326 10 14.7598 10.0527 14.8536 10.1464C14.9473 10.2402 15 10.3674 15 10.5V12.5C15 13.163 14.7366 13.7989 14.2678 14.2678C13.7989 14.7366 13.163 15 12.5 15H10.5Z" fill="currentColor"/>
</svg>
