<svg width="16" height="16" viewBox="0 0 16 16" fill="none" xmlns="http://www.w3.org/2000/svg">
<path d="M4.25 1C3.38805 1 2.5614 1.34241 1.9519 1.9519C1.34241 2.5614 1 3.38805 1 4.25V8.75C1 9.61195 1.34241 10.4386 1.9519 11.0481C2.5614 11.6576 3.38805 12 4.25 12H8.75C9.61195 12 10.4386 11.6576 11.0481 11.0481C11.6576 10.4386 12 9.61195 12 8.75V4.25C12 3.38805 11.6576 2.5614 11.0481 1.9519C10.4386 1.34241 9.61195 1 8.75 1H4.25ZM2.5 4.25C2.5 3.284 3.284 2.5 4.25 2.5H8.75C9.716 2.5 10.5 3.284 10.5 4.25V8.75C10.5 9.21413 10.3156 9.65925 9.98744 9.98744C9.65925 10.3156 9.21413 10.5 8.75 10.5H4.25C3.78587 10.5 3.34075 10.3156 3.01256 9.98744C2.68437 9.65925 2.5 9.21413 2.5 8.75V4.25ZM5.043 14.136C4.556 13.685 4.98 13 5.645 13C5.889 13 6.117 13.105 6.323 13.235C6.592 13.403 6.91 13.5 7.25 13.5H11.75C12.227 13.5 12.66 13.31 12.975 13H13V12.975C13.31 12.659 13.5 12.227 13.5 11.75V7.25C13.5 6.91 13.403 6.592 13.235 6.323C13.105 6.117 13 5.889 13 5.645C13 4.981 13.684 4.555 14.136 5.043C14.672 5.623 15 6.398 15 7.25V11.75C15 12.1768 14.9159 12.5994 14.7526 12.9937C14.5893 13.388 14.3499 13.7463 14.0481 14.0481C13.7463 14.3499 13.388 14.5893 12.9937 14.7526C12.5994 14.9159 12.1768 15 11.75 15H7.25C6.43158 15.0013 5.64304 14.6926 5.043 14.136Z" fill="currentColor"/>
</svg>
