<svg width="16" height="16" viewBox="0 0 16 16" fill="none" xmlns="http://www.w3.org/2000/svg">
<path fill-rule="evenodd" clip-rule="evenodd" d="M5.3776 7.50001C5.70912 7.50001 5.97788 7.76863 5.97788 8.10001L5.97621 9.87389C8.35127 10.098 14.0028 10.7906 14.0028 11.2022C14.0028 11.5134 11.3281 11.9976 5.97864 12.6549L5.97788 14.4016C5.97788 14.5453 5.92633 14.6841 5.83261 14.793C5.61637 15.0442 5.23736 15.0726 4.98606 14.8564L1.13917 11.5477C1.12384 11.5345 1.10953 11.5202 1.09636 11.5048C0.952518 11.3371 0.97194 11.0846 1.13974 10.9408L4.98692 7.64447C5.09572 7.55125 5.2343 7.50001 5.3776 7.50001ZM10.1674 1.20865C10.3836 0.957477 10.7626 0.929073 11.0139 1.14521L14.8608 4.45394C14.8762 4.46712 14.8905 4.48145 14.9036 4.4968C15.0475 4.66453 15.0281 4.91705 14.8603 5.06082L11.0131 8.35718C10.9043 8.4504 10.7657 8.50164 10.6224 8.50164C10.2909 8.50164 10.0221 8.23301 10.0221 7.90164L10.0238 6.12776C7.64872 5.90363 1.99719 5.21107 1.99719 4.79949C1.99719 4.48829 4.67191 4.00406 10.0213 3.34678L10.0221 1.60001C10.0221 1.45638 10.0737 1.31752 10.1674 1.20865Z" fill="currentColor"/>
</svg>
