<svg width="16" height="16" viewBox="0 0 16 16" fill="none" xmlns="http://www.w3.org/2000/svg">
<path d="M12.5849 7C13.0499 7 13.4959 7.18511 13.8242 7.51446L14.4893 8.18162C14.8164 8.50966 15 8.95396 15 9.41716V13C15 13.9665 14.2165 14.75 13.25 14.75H9.75C8.7835 14.75 8 13.9665 8 13V8.75C8 7.7835 8.7835 7 9.75 7H12.5849ZM10.7458 1C12.8169 1 14.4958 2.67893 14.4958 4.75V5.24561C14.4958 5.65982 14.1601 5.99561 13.7458 5.99561C13.3316 5.99561 12.9958 5.65982 12.9958 5.24561V4.75C12.9958 3.50736 11.9885 2.5 10.7458 2.5H4.74585C3.50321 2.5 2.49585 3.50736 2.49585 4.75V10.9705C2.49585 12.2131 3.50321 13.2205 4.74585 13.2205H6.05235C6.46656 13.2205 6.80235 13.5562 6.80235 13.9705C6.80235 14.3847 6.46656 14.7205 6.05235 14.7205H4.74585C2.67478 14.7205 0.99585 13.0415 0.99585 10.9705V4.75C0.99585 2.67893 2.67478 1 4.74585 1H10.7458ZM12.5849 8.5H9.75C9.61193 8.5 9.5 8.61193 9.5 8.75V13C9.5 13.1381 9.61193 13.25 9.75 13.25H13.25C13.3881 13.25 13.5 13.1381 13.5 13V9.41716C13.5 9.35099 13.4738 9.28752 13.427 9.24065L12.7619 8.57349C12.715 8.52644 12.6513 8.5 12.5849 8.5ZM12.25 11.5C12.5261 11.5 12.75 11.7239 12.75 12C12.75 12.2761 12.5261 12.5 12.25 12.5H10.75C10.4739 12.5 10.25 12.2761 10.25 12C10.25 11.7239 10.4739 11.5 10.75 11.5H12.25ZM12.25 10C12.5261 10 12.75 10.2239 12.75 10.5C12.75 10.7761 12.5261 11 12.25 11H10.75C10.4739 11 10.25 10.7761 10.25 10.5C10.25 10.2239 10.4739 10 10.75 10H12.25Z" fill="currentColor"/>
</svg>
