<svg width="16" height="16" viewBox="0 0 16 16" fill="none" xmlns="http://www.w3.org/2000/svg">
<path d="M14.3085 2H10.0838C9.90039 2 9.72451 2.06725 9.59483 2.18695C9.46515 2.30666 9.3923 2.46901 9.3923 2.6383C9.3923 2.80759 9.46515 2.96994 9.59483 3.08964C9.72451 3.20935 9.90039 3.2766 10.0838 3.2766H10.6846C10.7093 3.2766 10.7336 3.28275 10.7549 3.29439C10.7763 3.30603 10.7938 3.32274 10.8057 3.34278C10.8177 3.36282 10.8235 3.38544 10.8228 3.40829C10.822 3.43114 10.8146 3.45338 10.8013 3.47268L4.50596 12.6054C4.48093 12.6416 4.44642 12.6714 4.40561 12.692C4.36481 12.7127 4.31903 12.7234 4.27251 12.7234H2.69149C2.50809 12.7234 2.33221 12.7907 2.20253 12.9104C2.07285 13.0301 2 13.1924 2 13.3617C2 13.531 2.07285 13.6933 2.20253 13.813C2.33221 13.9328 2.50809 14 2.69149 14H6.91621C7.09961 14 7.27549 13.9328 7.40517 13.813C7.53485 13.6933 7.6077 13.531 7.6077 13.3617C7.6077 13.1924 7.53485 13.0301 7.40517 12.9104C7.27549 12.7907 7.09961 12.7234 6.91621 12.7234H6.31545C6.29068 12.7234 6.26637 12.7173 6.24505 12.7056C6.22374 12.694 6.2062 12.6773 6.19427 12.6572C6.18234 12.6372 6.17647 12.6146 6.17725 12.5917C6.17803 12.5689 6.18545 12.5466 6.19872 12.5273L12.494 3.39506C12.519 3.35877 12.5535 3.32889 12.5943 3.30818C12.6351 3.28747 12.6809 3.27661 12.7275 3.2766H14.3085C14.4919 3.2766 14.6678 3.20935 14.7975 3.08964C14.9271 2.96994 15 2.80759 15 2.6383C15 2.46901 14.9271 2.30666 14.7975 2.18695C14.6678 2.06725 14.4919 2 14.3085 2Z" fill="currentColor"/>
</svg>
