<svg width="16" height="16" viewBox="0 0 16 16" fill="none" xmlns="http://www.w3.org/2000/svg">
<path fill-rule="evenodd" clip-rule="evenodd" d="M2 4C1.44772 4 1 4.44772 1 5V11C1 11.5523 1.44772 12 2 12H14C14.5523 12 15 11.5523 15 11V5C15 4.44772 14.5523 4 14 4H2ZM2 5.5C2 5.22386 2.22386 5 2.5 5H3C3.27614 5 3.5 5.22386 3.5 5.5V6C3.5 6.27614 3.27614 6.5 3 6.5H2.5C2.22386 6.5 2 6.27614 2 6V5.5ZM2 10C2 9.72386 2.22386 9.5 2.5 9.5H3C3.27614 9.5 3.5 9.72386 3.5 10V10.5C3.5 10.7761 3.27614 11 3 11H2.5C2.22386 11 2 10.7761 2 10.5V10ZM5 10C5 9.72386 5.22386 9.5 5.5 9.5H10.5C10.7761 9.5 11 9.72386 11 10V10.5C11 10.7761 10.7761 11 10.5 11H5.5C5.22386 11 5 10.7761 5 10.5V10ZM13 9.5C12.7239 9.5 12.5 9.72386 12.5 10V10.5C12.5 10.7761 12.7239 11 13 11H13.5C13.7761 11 14 10.7761 14 10.5V10C14 9.72386 13.7761 9.5 13.5 9.5H13ZM5 5C4.72386 5 4.5 5.22386 4.5 5.5V6C4.5 6.27614 4.72386 6.5 5 6.5H5.5C5.77614 6.5 6 6.27614 6 6V5.5C6 5.22386 5.77614 5 5.5 5H5ZM7.25 5.5C7.25 5.22386 7.47386 5 7.75 5H8.25C8.52614 5 8.75 5.22386 8.75 5.5V6C8.75 6.27614 8.52614 6.5 8.25 6.5H7.75C7.47386 6.5 7.25 6.27614 7.25 6V5.5ZM10.5 5C10.2239 5 10 5.22386 10 5.5V6C10 6.27614 10.2239 6.5 10.5 6.5H11C11.2761 6.5 11.5 6.27614 11.5 6V5.5C11.5 5.22386 11.2761 5 11 5H10.5ZM12.5 5.5C12.5 5.22386 12.7239 5 13 5H13.5C13.7761 5 14 5.22386 14 5.5V6C14 6.27614 13.7761 6.5 13.5 6.5H13C12.7239 6.5 12.5 6.27614 12.5 6V5.5ZM2.5 7.25C2.22386 7.25 2 7.47386 2 7.75V8.25C2 8.52614 2.22386 8.75 2.5 8.75H3C3.27614 8.75 3.5 8.52614 3.5 8.25V7.75C3.5 7.47386 3.27614 7.25 3 7.25H2.5ZM4.5 7.75C4.5 7.47386 4.72386 7.25 5 7.25H5.5C5.77614 7.25 6 7.47386 6 7.75V8.25C6 8.52614 5.77614 8.75 5.5 8.75H5C4.72386 8.75 4.5 8.52614 4.5 8.25V7.75ZM7.75 7.25C7.47386 7.25 7.25 7.47386 7.25 7.75V8.25C7.25 8.52614 7.47386 8.75 7.75 8.75H8.25C8.52614 8.75 8.75 8.52614 8.75 8.25V7.75C8.75 7.47386 8.52614 7.25 8.25 7.25H7.75ZM10 7.75C10 7.47386 10.2239 7.25 10.5 7.25H11C11.2761 7.25 11.5 7.47386 11.5 7.75V8.25C11.5 8.52614 11.2761 8.75 11 8.75H10.5C10.2239 8.75 10 8.52614 10 8.25V7.75ZM13 7.25C12.7239 7.25 12.5 7.47386 12.5 7.75V8.25C12.5 8.52614 12.7239 8.75 13 8.75H13.5C13.7761 8.75 14 8.52614 14 8.25V7.75C14 7.47386 13.7761 7.25 13.5 7.25H13Z" fill="currentColor"/>
</svg>
