<svg width="16" height="16" viewBox="0 0 16 16" fill="none" xmlns="http://www.w3.org/2000/svg">
<path d="M12.9548 3H10.0457C9.74445 3 9.50024 3.24421 9.50024 3.54545V6.45455C9.50024 6.75579 9.74445 7 10.0457 7H12.9548C13.256 7 13.5002 6.75579 13.5002 6.45455V3.54545C13.5002 3.24421 13.256 3 12.9548 3Z" fill="currentColor"/>
<path d="M6.45455 3H3.54545C3.24421 3 3 3.24421 3 3.54545V6.45455C3 6.75579 3.24421 7 3.54545 7H6.45455C6.75579 7 7 6.75579 7 6.45455V3.54545C7 3.24421 6.75579 3 6.45455 3Z" fill="currentColor"/>
<path d="M6.45455 9.50024H3.54545C3.24421 9.50024 3 9.74445 3 10.0457V12.9548C3 13.256 3.24421 13.5002 3.54545 13.5002H6.45455C6.75579 13.5002 7 13.256 7 12.9548V10.0457C7 9.74445 6.75579 9.50024 6.45455 9.50024Z" fill="currentColor"/>
<path d="M12.9548 9.50024H10.0457C9.74445 9.50024 9.50024 9.74445 9.50024 10.0457V12.9548C9.50024 13.256 9.74445 13.5002 10.0457 13.5002H12.9548C13.256 13.5002 13.5002 13.256 13.5002 12.9548V10.0457C13.5002 9.74445 13.256 9.50024 12.9548 9.50024Z" fill="currentColor"/>
</svg>
