<svg width="16" height="16" viewBox="0 0 16 16" fill="none" xmlns="http://www.w3.org/2000/svg">
<path d="M6.00007 6.99814C6.00007 6.99814 5.40007 6.39814 7.00007 3.99814C8.54871 1.67518 12.7205 1.03851 14.8003 1.00003C14.9107 0.997995 15.0001 1.08764 15.0057 1.19795C15.0119 1.32165 15.0228 1.45252 15.0343 1.59132C15.1154 2.5721 15.2294 3.94931 14.0002 5.99814C12.6369 8.02133 10.1023 8.95926 9.97412 9.00667C9.97077 9.00791 9.96907 9.00857 9.96907 9.00857L10.0002 8.99814C12.2131 8.26049 13.0657 9.15523 13.5615 9.67546C13.7378 9.86049 13.869 9.99814 14.0002 9.99814C11.3626 11.5496 8.46847 12.4462 6.00006 11C6.30987 10.1812 9.50006 6 12.0001 3.99814C8.50006 5 6.00006 8.49814 5.00006 9.99814C3.34812 7.97231 4.45848 4.03505 5.50006 3C5.5728 2.92772 5.67571 3.00872 5.64278 3.10584C5.28554 4.15923 5.00006 7 6.00007 6.99814Z" fill="currentColor"/>
<path d="M1 14.9981H2L5.5 11.9981L5.13246 11.8144C4.71356 11.6049 4.33117 11.3293 4 10.9981L1 14.9981Z" fill="currentColor"/>
</svg>
