<svg width="16" height="16" viewBox="0 0 16 16" fill="none" xmlns="http://www.w3.org/2000/svg">
<path fill-rule="evenodd" clip-rule="evenodd" d="M1.32698 2.63803C1 3.27976 1 4.11984 1 5.8V10.2C1 11.8802 1 12.7202 1.32698 13.362C1.6146 13.9265 2.07354 14.3854 2.63803 14.673C3.27976 15 4.11984 15 5.8 15H10.2C11.8802 15 12.7202 15 13.362 14.673C13.9265 14.3854 14.3854 13.9265 14.673 13.362C15 12.7202 15 11.8802 15 10.2V5.8C15 4.11984 15 3.27976 14.673 2.63803C14.3854 2.07354 13.9265 1.6146 13.362 1.32698C12.7202 1 11.8802 1 10.2 1H5.8C4.11984 1 3.27976 1 2.63803 1.32698C2.07354 1.6146 1.6146 2.07354 1.32698 2.63803ZM10.8272 10.8354C10.7574 10.9052 10.6855 10.972 10.6119 11.0356L4.96436 5.38807C5.028 5.31448 5.09476 5.24265 5.16465 5.17276C6.72833 3.60908 9.26356 3.60908 10.8272 5.17276C12.3909 6.73644 12.3909 9.27167 10.8272 10.8354ZM4.6101 5.86502L10.135 11.3899C9.95994 11.5007 9.77818 11.5966 9.59151 11.6776L4.32236 6.40849C4.40338 6.22182 4.49929 6.04006 4.6101 5.86502ZM8.9709 11.8882L4.11177 7.0291C4.05264 7.26564 4.01538 7.50652 4 7.74854L8.25146 12C8.49348 11.9846 8.73436 11.9474 8.9709 11.8882ZM4.03909 8.61883L7.38117 11.9609C6.56983 11.8355 5.78964 11.4603 5.16465 10.8354C4.53966 10.2104 4.16447 9.43017 4.03909 8.61883Z" fill="currentColor"/>
</svg>
