<svg width="16" height="16" viewBox="0 0 16 16" fill="none" xmlns="http://www.w3.org/2000/svg">
<path fill-rule="evenodd" clip-rule="evenodd" d="M11.1111 1H4.88889L4.68235 1.0053C2.6306 1.11094 1 2.78131 1 4.8264V11.1736L1.00539 11.3768C1.11275 13.3956 2.8104 15 4.88889 15H5.14815L5.25369 14.993C5.63332 14.9423 5.92593 14.6222 5.92593 14.2347C5.92593 13.8121 5.5777 13.4694 5.14815 13.4694H4.88889L4.72913 13.4641C3.51498 13.3834 2.55556 12.3887 2.55556 11.1736V4.8264L2.56094 4.66922C2.64303 3.47457 3.65392 2.53056 4.88889 2.53056H11.1111L11.2709 2.53586C12.485 2.61663 13.4515 3.61128 13.4515 4.8264V4.93025C13.503 5.30378 13.8285 5.59168 14.2222 5.59168C14.6518 5.59168 15 5.24906 15 4.8264L14.9946 4.62319C14.8872 2.6044 13.1896 1 11.1111 1ZM9.14639 7.74497C8.93387 8.01972 8.95512 8.41357 9.21015 8.6645C9.48837 8.93825 9.93944 8.93825 10.2177 8.6645L10.6687 8.22067L10.769 8.12965C11.4221 7.58353 12.4029 7.61387 13.0196 8.22067C13.6688 8.85941 13.6688 9.89501 13.0196 10.5338L12.5685 10.9776L12.5048 11.0494C12.2922 11.3241 12.3135 11.718 12.5685 11.9689C12.8467 12.2426 13.2978 12.2426 13.576 11.9689L14.0271 11.5251L14.1475 11.3998C15.2313 10.2071 15.1911 8.37468 14.0271 7.22935C12.8215 6.04313 10.8668 6.04313 9.66123 7.22936L9.21015 7.67319L9.14639 7.74497ZM11.9698 13.5396C12.1823 13.2649 12.1611 12.871 11.9061 12.6201C11.6278 12.3463 11.1768 12.3463 10.8986 12.6201L10.4475 13.0639L10.3472 13.1549C9.69406 13.701 8.71333 13.6707 8.09662 13.0639C7.44745 12.4252 7.44745 11.3896 8.09662 10.7508L8.5477 10.307L8.61146 10.2352C8.82398 9.96045 8.80273 9.5666 8.5477 9.31567C8.26948 9.04193 7.81841 9.04193 7.54019 9.31567L7.08911 9.7595L6.9687 9.88478C5.88495 11.0775 5.92509 12.9099 7.08911 14.0552C8.29471 15.2414 10.2494 15.2414 11.455 14.0552L11.9061 13.6114L11.9698 13.5396ZM12.1972 9.1321C12.501 9.43096 12.501 9.9155 12.1972 10.2144L10.1232 12.2551C9.81942 12.554 9.32696 12.554 9.02322 12.2551C8.71947 11.9563 8.71947 11.4717 9.02322 11.1728L11.0973 9.1321C11.401 8.83323 11.8935 8.83323 12.1972 9.1321Z" fill="currentColor"/>
</svg>
