<svg width="16" height="16" viewBox="0 0 16 16" fill="none" xmlns="http://www.w3.org/2000/svg">
<path d="M9.30566 10.206C9.57232 10.4726 9.59455 10.8912 9.37233 11.1831L9.30566 11.2594L6.84759 13.7175C5.587 14.9781 3.54319 14.9781 2.2826 13.7175C1.06548 12.5004 1.02352 10.5531 2.15669 9.28565L2.2826 9.15252L4.74067 6.69444C5.03158 6.40354 5.50323 6.40354 5.79413 6.69444C6.06079 6.96111 6.08302 7.37964 5.8608 7.67162L5.79413 7.7479L3.33606 10.206C2.65728 10.8847 2.65728 11.9853 3.33606 12.664C3.9809 13.3089 5.00636 13.3411 5.68926 12.7608L5.79413 12.664L8.2522 10.206C8.54311 9.91507 9.01476 9.91507 9.30566 10.206ZM9.8299 6.1702C10.1208 6.4611 10.1208 6.93275 9.8299 7.22366L7.34929 9.70428C7.05838 9.99519 6.58673 9.99519 6.29583 9.70428C6.00492 9.41338 6.00492 8.94173 6.29583 8.65082L8.77645 6.1702C9.06735 5.87929 9.539 5.87929 9.8299 6.1702ZM13.7176 2.28251C14.9347 3.49963 14.9767 5.44689 13.8435 6.71437L13.7176 6.8475L11.2595 9.30558C10.9686 9.59648 10.497 9.59648 10.2061 9.30558C9.93939 9.03892 9.91717 8.62038 10.1394 8.3284L10.2061 8.25212L12.6641 5.79404C13.3429 5.11526 13.3429 4.01475 12.6641 3.33597C12.0193 2.69113 10.9939 2.65889 10.311 3.23924L10.2061 3.33597L7.74799 5.79404C7.45708 6.08495 6.98543 6.08495 6.69453 5.79404C6.42787 5.52738 6.40564 5.10884 6.62786 4.81687L6.69453 4.74058L9.1526 2.28251C10.4132 1.02192 12.457 1.02192 13.7176 2.28251Z" fill="currentColor"/>
</svg>
