<svg width="16" height="16" viewBox="0 0 16 16" fill="none" xmlns="http://www.w3.org/2000/svg">
<path d="M5 13.0001L4.99998 1.00018L1.40251 3.04575C1.15509 3.17511 1 3.4312 1 3.7104V14.2502C1 14.5204 1.14535 14.7697 1.38048 14.9028C1.61562 15.036 1.90419 15.0323 2.13588 14.8933L5 13.0001Z" fill="currentColor"/>
<path d="M6 1.00018V13.0001L9.99998 15.0001V3.00209L6 1.00018Z" fill="currentColor"/>
<path d="M14.6935 12.105L11 15.0001V3.00209L13.8641 1.10697C14.0958 0.967953 14.3844 0.964312 14.6195 1.09744C14.8547 1.23057 15 1.47989 15 1.75009V11.5002C15 11.7391 14.8862 11.9637 14.6935 12.105Z" fill="currentColor"/>
</svg>
