<svg width="16" height="16" viewBox="0 0 16 16" fill="none" xmlns="http://www.w3.org/2000/svg">
<path d="M5 4C5 3.20435 5.31607 2.44129 5.87868 1.87868C6.44129 1.31607 7.20435 1 8 1C8.79565 1 9.55871 1.31607 10.1213 1.87868C10.6839 2.44129 11 3.20435 11 4V8C11 8.79565 10.6839 9.55871 10.1213 10.1213C9.55871 10.6839 8.79565 11 8 11C7.20435 11 6.44129 10.6839 5.87868 10.1213C5.31607 9.55871 5 8.79565 5 8V4Z" fill="currentColor"/>
<path d="M3.5 5.5C3.63261 5.5 3.75979 5.55268 3.85355 5.64645C3.94732 5.74021 4 5.86739 4 6V8.5C4 9.42826 4.36875 10.3185 5.02513 10.9749C5.6815 11.6313 6.57174 12 7.5 12H8.5C9.42826 12 10.3185 11.6313 10.9749 10.9749C11.6313 10.3185 12 9.42826 12 8.5V6C12 5.86739 12.0527 5.74021 12.1464 5.64645C12.2402 5.55268 12.3674 5.5 12.5 5.5C12.6326 5.5 12.7598 5.55268 12.8536 5.64645C12.9473 5.74021 13 5.86739 13 6V8.5C13.0002 9.60705 12.5923 10.6753 11.8544 11.5005C11.1164 12.3258 10.1002 12.85 9 12.973V14C9.26522 14 9.51957 14.1054 9.70711 14.2929C9.89464 14.4804 10 14.7348 10 15H6C6 14.7348 6.10536 14.4804 6.29289 14.2929C6.48043 14.1054 6.73478 14 7 14V12.973C5.89981 12.85 4.88356 12.3258 4.14561 11.5005C3.40766 10.6753 2.99979 9.60705 3 8.5V6C3 5.86739 3.05268 5.74021 3.14645 5.64645C3.24021 5.55268 3.36739 5.5 3.5 5.5Z" fill="currentColor"/>
</svg>
