<svg width="16" height="16" viewBox="0 0 16 16" fill="none" xmlns="http://www.w3.org/2000/svg">
<path d="M12.897 2.557C13.165 2.765 12.862 3.177 12.524 3.109C12.1652 3.03621 11.8001 2.99969 11.434 3C8.555 3 6 5.239 6 8C6 10.761 8.553 13 11.435 13C11.808 13 12.173 12.962 12.525 12.89C12.862 12.822 13.165 13.235 12.897 13.443C11.5817 14.4582 9.96553 15.0061 8.304 15C4.27 15 1 11.866 1 8C1 4.134 4.27 1 8.304 1C10.044 1 11.643 1.583 12.897 2.557Z" fill="currentColor"/>
<path d="M9.12005 8.195C9.08383 8.1769 9.05337 8.14907 9.03208 8.11462C9.01079 8.08018 8.99951 8.04049 8.99951 8C8.99951 7.95951 9.01079 7.91982 9.03208 7.88538C9.05337 7.85093 9.08383 7.8231 9.12005 7.805L9.54605 7.593C10.4315 7.14993 11.1494 6.43167 11.592 5.546L11.805 5.12C11.885 4.96 12.115 4.96 12.195 5.12L12.408 5.546C12.8507 6.43167 13.5686 7.14993 14.454 7.593L14.879 7.805C15.04 7.885 15.04 8.115 14.879 8.195L14.454 8.407C13.5686 8.85007 12.8507 9.56833 12.408 10.454L12.195 10.879C12.115 11.04 11.885 11.04 11.805 10.879L11.592 10.454C11.1494 9.56833 10.4315 8.85007 9.54605 8.407L9.12005 8.195Z" fill="currentColor"/>
</svg>
