<svg width="16" height="16" viewBox="0 0 16 16" fill="none" xmlns="http://www.w3.org/2000/svg">
<g clip-path="url(#clip0_22_1870)">
<path fill-rule="evenodd" clip-rule="evenodd" d="M14.2994 15.5165C14.918 15.3192 15.1804 14.5923 14.8677 14.0151L8.9336 3.06073C8.52859 2.31309 7.47141 2.31309 7.0664 3.06073L1.1323 14.0151C0.819612 14.5923 1.08197 15.3192 1.70057 15.5165C1.8343 15.5592 1.9683 15.6004 2.10257 15.6403C5.96173 16.7866 10.0383 16.7866 13.8974 15.6403C14.0317 15.6004 14.1657 15.5592 14.2994 15.5165ZM10.467 9.30774L8 4.75367L5.44099 9.47759C5.70485 9.86728 6.06836 10.319 6.06836 10.319C6.06836 10.319 7.56836 9.31897 8.06836 9.31901C8.51122 9.31904 9.56836 10.319 9.56836 10.319C9.95257 10.0401 10.2381 9.65661 10.467 9.30774Z" fill="currentColor"/>
</g>
<defs>
<clipPath id="clip0_22_1870">
<rect width="16" height="16" fill="white"/>
</clipPath>
</defs>
</svg>
