<svg width="16" height="16" viewBox="0 0 16 16" fill="none" xmlns="http://www.w3.org/2000/svg">
<path fill-rule="evenodd" clip-rule="evenodd" d="M15 3.18C14.9999 2.88958 14.9365 2.60267 14.8143 2.33921C14.6921 2.07576 14.514 1.84207 14.2924 1.65441C14.0707 1.46674 13.8109 1.32959 13.5309 1.2525C13.2509 1.17541 12.9575 1.16023 12.671 1.208L5.671 2.374C5.20401 2.45188 4.77979 2.6929 4.47381 3.05418C4.16784 3.41546 3.99994 3.87356 4 4.347V11.8C4 11.853 3.97893 11.9039 3.94142 11.9414C3.90391 11.9789 3.85304 12 3.8 12H2.5C1.5 12 1 12.566 1 13.351C1 14.261 1.738 15 2.649 15H3.5C3.8283 15 4.15339 14.9353 4.45671 14.8097C4.76002 14.6841 5.03562 14.4999 5.26777 14.2678C5.49991 14.0356 5.68406 13.76 5.8097 13.4567C5.93534 13.1534 6 12.8283 6 12.5V7.51C5.99982 7.46255 6.01652 7.41659 6.04712 7.38031C6.07771 7.34404 6.1202 7.31983 6.167 7.312L12.767 6.212C12.7957 6.2072 12.8251 6.20872 12.8532 6.21647C12.8813 6.22422 12.9073 6.238 12.9295 6.25686C12.9517 6.27571 12.9695 6.29919 12.9817 6.32564C12.9939 6.35209 13.0001 6.38088 13 6.41V10.8C13 10.853 12.9789 10.9039 12.9414 10.9414C12.9039 10.9789 12.853 11 12.8 11H11.5C10.5 11 10 11.566 10 12.351C10 13.261 10.738 14 11.649 14H12.5C13.163 14 13.7989 13.7366 14.2678 13.2678C14.7366 12.7989 15 12.163 15 11.5V3.18ZM12.833 5.188C12.8798 5.18017 12.9223 5.15596 12.9529 5.11969C12.9835 5.08342 13.0002 5.03745 13 4.99V3.417C13.0001 3.38788 12.9939 3.35909 12.9817 3.33264C12.9695 3.30619 12.9517 3.28271 12.9295 3.26386C12.9073 3.245 12.8813 3.23122 12.8532 3.22347C12.8251 3.21572 12.7957 3.2142 12.767 3.219L6.167 4.319C6.1202 4.32683 6.07771 4.35104 6.04712 4.38731C6.01652 4.42359 5.99982 4.46955 6 4.517V6.09C5.99989 6.11912 6.00614 6.14791 6.01832 6.17436C6.03049 6.20082 6.0483 6.22429 6.07049 6.24315C6.09268 6.262 6.11872 6.27579 6.14679 6.28353C6.17486 6.29128 6.20428 6.29281 6.233 6.288L12.833 5.188Z" fill="currentColor"/>
</svg>
