<svg width="16" height="16" viewBox="0 0 16 16" fill="none" xmlns="http://www.w3.org/2000/svg">
<g clip-path="url(#clip0_22_1382)">
<path fill-rule="evenodd" clip-rule="evenodd" d="M2.38341 3.40415H2.55361V3.40551C2.68904 3.40551 2.81892 3.45931 2.91468 3.55507C3.01044 3.65083 3.06424 3.78071 3.06424 3.91613C3.06424 4.05156 3.01044 4.18144 2.91468 4.2772C2.81892 4.37296 2.68904 4.42676 2.55361 4.42676H0.851538C0.716113 4.42676 0.586234 4.37296 0.490474 4.2772C0.394713 4.18144 0.340916 4.05156 0.340916 3.91613C0.340916 3.78071 0.394713 3.65083 0.490474 3.55507C0.586234 3.45931 0.716113 3.40551 0.851538 3.40551H1.02175C1.06689 3.40551 1.11018 3.38758 1.1421 3.35566C1.17402 3.32374 1.19195 3.28045 1.19195 3.2353V1.19281C1.19213 1.17035 1.18786 1.14807 1.17939 1.12726C1.17092 1.10645 1.15841 1.08753 1.14258 1.07158C1.12676 1.05563 1.10794 1.04297 1.0872 1.03433C1.06646 1.02569 1.04421 1.02124 1.02175 1.02124H0.851538C0.716113 1.02124 0.586234 0.967447 0.490474 0.871687C0.394713 0.775927 0.340916 0.646048 0.340916 0.510622C0.340916 0.375197 0.394713 0.245318 0.490474 0.149558C0.586234 0.0537976 0.716113 0 0.851538 0H1.27706C1.52523 0.000360188 1.76313 0.0991047 1.93861 0.274587C2.11409 0.45007 2.21284 0.687972 2.2132 0.936141V3.2353C2.21356 3.28021 2.23165 3.32315 2.26353 3.35478C2.29541 3.38641 2.3385 3.40415 2.38341 3.40415ZM15.3192 2.89489H5.10673C4.92616 2.89489 4.75299 2.82316 4.62531 2.69548C4.49763 2.5678 4.4259 2.39463 4.4259 2.21406C4.4259 2.0335 4.49763 1.86032 4.62531 1.73264C4.75299 1.60496 4.92616 1.53323 5.10673 1.53323H15.3192C15.4997 1.53323 15.6729 1.60496 15.8006 1.73264C15.9283 1.86032 16 2.0335 16 2.21406C16 2.39463 15.9283 2.5678 15.8006 2.69548C15.6729 2.82316 15.4997 2.89489 15.3192 2.89489ZM5.10673 7.32031H15.3192C15.4997 7.32031 15.6729 7.39204 15.8006 7.51972C15.9283 7.6474 16 7.82058 16 8.00114C16 8.18171 15.9283 8.35488 15.8006 8.48256C15.6729 8.61024 15.4997 8.68197 15.3192 8.68197H5.10673C4.92616 8.68197 4.75299 8.61024 4.62531 8.48256C4.49763 8.35488 4.4259 8.18171 4.4259 8.00114C4.4259 7.82058 4.49763 7.6474 4.62531 7.51972C4.75299 7.39204 4.92616 7.32031 5.10673 7.32031ZM15.3192 13.1073H5.10673C4.92616 13.1073 4.75299 13.1791 4.62531 13.3068C4.49763 13.4344 4.4259 13.6076 4.4259 13.7882C4.4259 13.9687 4.49763 14.1419 4.62531 14.2696C4.75299 14.3973 4.92616 14.469 5.10673 14.469H15.3192C15.4997 14.469 15.6729 14.3973 15.8006 14.2696C15.9283 14.1419 16 13.9687 16 13.7882C16 13.6076 15.9283 13.4344 15.8006 13.3068C15.6729 13.1791 15.4997 13.1073 15.3192 13.1073ZM0.506606 11.8557C0.74459 11.673 1.03625 11.574 1.33628 11.5741V11.5728C1.58279 11.5729 1.82465 11.6399 2.03604 11.7668C2.24743 11.8936 2.42044 12.0754 2.53659 12.2928C2.65275 12.5102 2.70771 12.7551 2.69559 13.0013C2.68348 13.2475 2.60476 13.4859 2.46782 13.6908C2.44917 13.7189 2.43922 13.7518 2.43922 13.7855C2.43922 13.8191 2.44917 13.8521 2.46782 13.8801C2.57746 14.0439 2.65023 14.2295 2.68111 14.4242C2.71199 14.6189 2.70025 14.8179 2.64668 15.0076C2.59312 15.1973 2.49901 15.3731 2.37087 15.5228C2.24272 15.6726 2.0836 15.7927 1.90448 15.875C1.72536 15.9572 1.53052 15.9996 1.33342 15.9992C1.13633 15.9988 0.941665 15.9556 0.762893 15.8726C0.58412 15.7896 0.425496 15.6688 0.29798 15.5185C0.170464 15.3682 0.0770943 15.192 0.0243229 15.0021C0.00415071 14.9368 -0.00271361 14.8682 0.00413656 14.8002C0.0109867 14.7322 0.031412 14.6663 0.0642025 14.6063C0.0969929 14.5464 0.141481 14.4936 0.195033 14.4512C0.248584 14.4087 0.310108 14.3775 0.375961 14.3592C0.441813 14.341 0.510655 14.3362 0.578407 14.3451C0.646159 14.3539 0.711444 14.3763 0.770393 14.4108C0.829343 14.4454 0.880758 14.4914 0.921593 14.5462C0.962428 14.601 0.991852 14.6634 1.00812 14.7298C1.02523 14.7908 1.05902 14.8458 1.10569 14.8886C1.15236 14.9315 1.21006 14.9604 1.27229 14.9723C1.33453 14.9841 1.39884 14.9784 1.45798 14.9556C1.51711 14.9329 1.56874 14.8941 1.60704 14.8437C1.64535 14.7932 1.66881 14.7331 1.67479 14.67C1.68077 14.6069 1.66903 14.5434 1.64089 14.4867C1.61276 14.4299 1.56934 14.3821 1.51553 14.3487C1.46171 14.3153 1.39963 14.2975 1.33628 14.2975C1.20086 14.2975 1.07098 14.2437 0.975218 14.1479C0.879457 14.0521 0.82566 13.9223 0.82566 13.7868C0.82566 13.6514 0.879457 13.5215 0.975218 13.4258C1.07098 13.33 1.20086 13.2762 1.33628 13.2762C1.3998 13.2762 1.46204 13.2584 1.51597 13.2248C1.5699 13.1913 1.61336 13.1433 1.64146 13.0864C1.66955 13.0294 1.68114 12.9657 1.67493 12.9025C1.66872 12.8393 1.64495 12.7791 1.6063 12.7287C1.56766 12.6783 1.51569 12.6397 1.45626 12.6173C1.39683 12.5949 1.33231 12.5895 1.27001 12.6019C1.20771 12.6142 1.1501 12.6437 1.1037 12.6871C1.0573 12.7305 1.02395 12.786 1.00744 12.8473C0.972592 12.9782 0.887165 13.0899 0.769955 13.1578C0.652744 13.2258 0.513351 13.2443 0.382439 13.2095C0.251528 13.1746 0.139822 13.0892 0.0718965 12.972C0.00397058 12.8548 -0.0146116 12.7154 0.0202379 12.5845C0.0976452 12.2946 0.268623 12.0384 0.506606 11.8557ZM2.72382 7.14872C2.72382 6.78759 2.58036 6.44125 2.325 6.18588C2.06964 5.93052 1.72329 5.78706 1.36216 5.78706C1.00102 5.78706 0.65468 5.93052 0.39932 6.18588C0.143959 6.44125 0.000498639 6.78759 0.000498639 7.14872C0.000498641 7.28415 0.0542962 7.41403 0.150056 7.50979C0.245817 7.60555 0.375696 7.65935 0.511121 7.65935C0.646547 7.65935 0.776425 7.60555 0.872186 7.50979C0.967946 7.41403 1.02174 7.28415 1.02174 7.14872C1.02174 7.05844 1.05761 6.97185 1.12145 6.90801C1.18529 6.84417 1.27187 6.80831 1.36216 6.80831C1.45244 6.80831 1.53903 6.84417 1.60287 6.90801C1.66671 6.97185 1.70257 7.05844 1.70257 7.14872C1.70251 7.30842 1.64799 7.46332 1.54803 7.58786L0.112155 9.38253C0.0519589 9.45765 0.0142228 9.54825 0.00329885 9.64389C-0.0076251 9.73953 0.00870805 9.83631 0.0504145 9.92307C0.092121 10.0098 0.157502 10.083 0.239016 10.1342C0.320531 10.1854 0.414859 10.2126 0.511121 10.2125H2.2132C2.34862 10.2125 2.4785 10.1587 2.57426 10.0629C2.67002 9.96714 2.72382 9.83726 2.72382 9.70184C2.72382 9.56641 2.67002 9.43653 2.57426 9.34077C2.4785 9.24501 2.34862 9.19121 2.2132 9.19121H1.92793C1.89579 9.19144 1.86424 9.18252 1.83698 9.1655C1.80971 9.14848 1.78785 9.12406 1.77393 9.09509C1.76001 9.06611 1.75462 9.03378 1.75838 9.00186C1.76214 8.96994 1.7749 8.93974 1.79517 8.9148L2.34936 8.2258C2.59218 7.91933 2.72415 7.53972 2.72382 7.14872Z" fill="currentColor"/>
</g>
<defs>
<clipPath id="clip0_22_1382">
<rect width="16" height="16" fill="white"/>
</clipPath>
</defs>
</svg>
