<svg width="16" height="16" viewBox="0 0 16 16" fill="none" xmlns="http://www.w3.org/2000/svg">
<path d="M2 2C2 1.73478 2.10536 1.48043 2.29289 1.29289C2.48043 1.10536 2.73478 1 3 1H11C11.2652 1 11.5196 1.10536 11.7071 1.29289C11.8946 1.48043 12 1.73478 12 2V4C12 4.26522 11.8946 4.51957 11.7071 4.70711C11.5196 4.89464 11.2652 5 11 5H3C2.73478 5 2.48043 4.89464 2.29289 4.70711C2.10536 4.51957 2 4.26522 2 4V2ZM5.5 10.5C5.5 10.3674 5.55268 10.2402 5.64645 10.1464C5.74021 10.0527 5.86739 10 6 10H7C7.13261 10 7.25979 10.0527 7.35355 10.1464C7.44732 10.2402 7.5 10.3674 7.5 10.5V14.5C7.5 14.6326 7.44732 14.7598 7.35355 14.8536C7.25979 14.9473 7.13261 15 7 15H6C5.86739 15 5.74021 14.9473 5.64645 14.8536C5.55268 14.7598 5.5 14.6326 5.5 14.5V10.5Z" fill="currentColor"/>
<path d="M13 4V2.586C13.2924 2.68939 13.5456 2.88087 13.7247 3.1341C13.9038 3.38733 14 3.68985 14 4V6.569C14 6.94827 13.8562 7.31345 13.5978 7.59102C13.3393 7.86859 12.9853 8.03795 12.607 8.065L7.464 8.432C7.33773 8.44112 7.21961 8.49779 7.1335 8.59059C7.04738 8.68339 6.99967 8.8054 7 8.932V9H6V8.931C6.00005 8.55173 6.14376 8.18655 6.40222 7.90898C6.66068 7.63141 7.01469 7.46206 7.393 7.435L12.536 7.068C12.6623 7.05889 12.7804 7.00221 12.8665 6.90941C12.9526 6.81661 13.0003 6.6946 13 6.568V4Z" fill="currentColor"/>
</svg>
