<svg width="16" height="16" viewBox="0 0 16 16" fill="none" xmlns="http://www.w3.org/2000/svg">
<path fill-rule="evenodd" clip-rule="evenodd" d="M11.111 1H4.89L4.683 1.005C2.631 1.111 1 2.781 1 4.826V11.174L1.005 11.377C1.113 13.396 2.81 15 4.89 15H5.15L5.255 14.993C5.43974 14.9693 5.60964 14.8794 5.7332 14.7401C5.85676 14.6007 5.92561 14.4213 5.927 14.235C5.92622 14.1336 5.90547 14.0334 5.86595 13.94C5.82642 13.8467 5.7689 13.762 5.69665 13.6909C5.62441 13.6197 5.53886 13.5635 5.44489 13.5255C5.35093 13.4874 5.25038 13.4682 5.149 13.469H4.889L4.73 13.464C3.516 13.384 2.557 12.389 2.557 11.174V4.826L2.562 4.669C2.644 3.475 3.655 2.531 4.89 2.531H11.112L11.272 2.536C12.486 2.616 13.452 3.611 13.452 4.826V4.93C13.479 5.11479 13.5719 5.28359 13.7136 5.40525C13.8553 5.52691 14.0362 5.59324 14.223 5.592C14.653 5.592 15.001 5.249 15.001 4.826L14.996 4.623C14.887 2.604 13.19 1 11.11 1H11.111ZM14.968 9.903C14.9944 9.85112 15.005 9.79258 14.9982 9.73475C14.9914 9.67691 14.9677 9.62237 14.93 9.578L12.905 7.116C12.8755 7.08117 12.839 7.05292 12.7979 7.03308C12.7568 7.01325 12.712 7.00227 12.6663 7.00085C12.6207 6.99944 12.5753 7.00762 12.533 7.02487C12.4908 7.04213 12.4526 7.06806 12.421 7.101L10.107 9.562C10.0544 9.61809 10.0251 9.69209 10.025 9.769C10.025 9.939 10.167 10.077 10.343 10.077H11.465C11.31 13.86 8.306 14.382 8.267 14.389C8.19372 14.3995 8.12657 14.4357 8.07763 14.4913C8.02869 14.5468 8.00116 14.618 8 14.692V14.717C8.013 14.877 8.152 15.001 8.318 15C8.372 15 13.623 14.942 13.836 10.077H14.681C14.7403 10.0774 14.7985 10.0614 14.8491 10.0306C14.8998 9.99992 14.941 9.95573 14.968 9.903Z" fill="currentColor"/>
</svg>
