<svg width="16" height="16" viewBox="0 0 16 16" fill="none" xmlns="http://www.w3.org/2000/svg">
<path fill-rule="evenodd" clip-rule="evenodd" d="M8 15C9.85652 15 11.637 14.2625 12.9497 12.9497C14.2625 11.637 15 9.85652 15 8C15 6.14348 14.2625 4.36301 12.9497 3.05025C11.637 1.7375 9.85652 1 8 1C6.14348 1 4.36301 1.7375 3.05025 3.05025C1.7375 4.36301 1 6.14348 1 8C1 9.85652 1.7375 11.637 3.05025 12.9497C4.36301 14.2625 6.14348 15 8 15ZM9 4C9 4.26522 8.89464 4.51957 8.70711 4.70711C8.51957 4.89464 8.26522 5 8 5C7.73478 5 7.48043 4.89464 7.29289 4.70711C7.10536 4.51957 7 4.26522 7 4C7 3.73478 7.10536 3.48043 7.29289 3.29289C7.48043 3.10536 7.73478 3 8 3C8.26522 3 8.51957 3.10536 8.70711 3.29289C8.89464 3.48043 9 3.73478 9 4ZM4.55 6C4.4146 6.0015 4.28451 6.0529 4.18465 6.14436C4.08478 6.23581 4.02217 6.36089 4.00879 6.49564C3.99542 6.63039 4.03222 6.76533 4.11215 6.87463C4.19209 6.98394 4.30953 7.05991 4.442 7.088L6.394 7.478L6.039 12.448C6.02651 12.5827 6.06752 12.7169 6.15319 12.8216C6.23885 12.9264 6.36228 12.9932 6.49679 13.0076C6.63131 13.0221 6.76611 12.983 6.87206 12.8989C6.97801 12.8147 7.0466 12.6923 7.063 12.558L7.29 10.967C7.357 10.504 7.533 10 8 10C8.467 10 8.643 10.504 8.71 10.967L8.937 12.557C8.954 12.6907 9.02272 12.8124 9.12843 12.896C9.23413 12.9796 9.36839 13.0184 9.5024 13.0041C9.6364 12.9899 9.75948 12.9237 9.84522 12.8197C9.93096 12.7157 9.97252 12.5823 9.961 12.448L9.606 7.478L11.558 7.088C11.6904 7.05994 11.8078 6.98405 11.8877 6.87485C11.9677 6.76565 12.0046 6.63081 11.9913 6.49612C11.9781 6.36144 11.9156 6.23637 11.8159 6.14483C11.7163 6.0533 11.5863 6.00173 11.451 6H4.55Z" fill="currentColor"/>
</svg>
