<svg width="16" height="16" viewBox="0 0 16 16" fill="none" xmlns="http://www.w3.org/2000/svg">
<path fill-rule="evenodd" clip-rule="evenodd" d="M3.09491 9.966C4.40889 11.2061 6.15016 11.8923 7.95691 11.882C9.76367 11.8923 11.5049 11.2061 12.8189 9.966C12.8668 9.91893 12.898 9.8575 12.9077 9.79107C12.9175 9.72464 12.9053 9.65684 12.8729 9.598L8.39592 1.268C8.35409 1.18771 8.29105 1.12043 8.21364 1.07348C8.13624 1.02653 8.04744 1.0017 7.95691 1.0017C7.86639 1.0017 7.77759 1.02653 7.70019 1.07348C7.62279 1.12043 7.55974 1.18771 7.51792 1.268L3.03991 9.597C3.00757 9.65584 2.99535 9.72364 3.00509 9.79007C3.01484 9.8565 3.04603 9.91793 3.09391 9.965L3.09491 9.966ZM5.94691 9.803C6.50191 9.803 6.95191 9.338 6.95191 8.764C6.95191 8.19 6.50191 7.724 5.94691 7.724C5.39091 7.724 4.94091 8.19 4.94091 8.764C4.94091 9.338 5.39091 9.803 5.94691 9.803ZM10.9729 8.764C10.9729 9.338 10.5229 9.804 9.96792 9.804C9.41192 9.804 8.96192 9.338 8.96192 8.764C8.96192 8.19 9.41192 7.724 9.96792 7.724C10.5229 7.724 10.9729 8.19 10.9729 8.764ZM7.95691 6.685C8.51191 6.685 8.96192 6.22 8.96192 5.646C8.96192 5.072 8.51191 4.606 7.95691 4.606C7.40192 4.606 6.95191 5.072 6.95191 5.646C6.95191 6.22 7.40192 6.686 7.95691 6.686V6.685Z" fill="currentColor"/>
<path fill-rule="evenodd" clip-rule="evenodd" d="M1.23185 12.634L1.21585 12.618L1.21785 12.62L1.22185 12.624L1.23185 12.634C1.27229 12.6756 1.31432 12.7156 1.35785 12.754C1.43785 12.826 1.55285 12.924 1.69985 13.038C2.10237 13.3473 2.53213 13.6194 2.98385 13.851C4.11185 14.434 5.77285 15 7.95685 15C10.0968 15 11.6268 14.584 12.7168 14.058C13.4616 13.7055 14.1338 13.2167 14.6988 12.617L14.9118 12.395C14.9681 12.3356 14.9995 12.2568 14.9995 12.175C14.9995 12.0932 14.9681 12.0144 14.9118 11.955L13.9168 10.925C13.8891 10.8961 13.8559 10.8731 13.819 10.8575C13.7821 10.8418 13.7425 10.8339 13.7024 10.834C13.6624 10.8342 13.6228 10.8426 13.5861 10.8586C13.5494 10.8745 13.5163 10.8978 13.4888 10.927L13.2728 11.151C13.0538 11.378 12.6488 11.797 11.8668 12.174C11.0728 12.558 9.83785 12.921 7.95685 12.921C6.11985 12.921 4.76485 12.448 3.88285 11.991C3.53925 11.8156 3.21225 11.6094 2.90585 11.375C2.81243 11.3031 2.72233 11.2271 2.63585 11.147L2.63185 11.143L2.60585 11.103C2.58349 11.0692 2.55441 11.0404 2.52043 11.0183C2.48644 10.9963 2.44827 10.9814 2.4083 10.9748C2.36833 10.9681 2.32742 10.9697 2.28812 10.9796C2.24881 10.9894 2.21195 11.0073 2.17985 11.032L1.12285 11.838C1.06562 11.8823 1.02522 11.9448 1.00831 12.0152C0.991406 12.0855 0.999001 12.1595 1.02985 12.225L1.21485 12.617L1.23185 12.634Z" fill="currentColor"/>
</svg>
