<svg width="16" height="16" viewBox="0 0 16 16" fill="none" xmlns="http://www.w3.org/2000/svg">
<g clip-path="url(#clip0_19_309)">
<path d="M7.99996 1.696C6.32803 1.696 4.72458 2.36017 3.54235 3.5424C2.36012 4.72463 1.69596 6.32808 1.69596 8C1.69596 9.67193 2.36012 11.2754 3.54235 12.4576C4.72458 13.6398 6.32803 14.304 7.99996 14.304C9.67188 14.304 11.2753 13.6398 12.4576 12.4576C13.6398 11.2754 14.304 9.67193 14.304 8C14.304 6.32808 13.6398 4.72463 12.4576 3.5424C11.2753 2.36017 9.67188 1.696 7.99996 1.696ZM0.303955 8C0.303955 5.95889 1.11478 4.00139 2.55806 2.55811C4.00134 1.11483 5.95885 0.304001 7.99996 0.304001C10.0411 0.304001 11.9986 1.11483 13.4418 2.55811C14.8851 4.00139 15.696 5.95889 15.696 8C15.696 10.0411 14.8851 11.9986 13.4418 13.4419C11.9986 14.8852 10.0411 15.696 7.99996 15.696C5.95885 15.696 4.00134 14.8852 2.55806 13.4419C1.11478 11.9986 0.303955 10.0411 0.303955 8Z" fill="currentColor"/>
<path d="M8.08001 4.966C7.91994 4.95503 7.75932 4.9771 7.60814 5.03084C7.45696 5.08458 7.31845 5.16884 7.20121 5.27839C7.08398 5.38793 6.99053 5.52041 6.92667 5.66761C6.86281 5.8148 6.82991 5.97356 6.83001 6.134C6.83001 6.31873 6.75663 6.49588 6.62601 6.6265C6.49539 6.75712 6.31824 6.8305 6.13351 6.8305C5.94879 6.8305 5.77163 6.75712 5.64101 6.6265C5.51039 6.49588 5.43701 6.31873 5.43701 6.134C5.43691 5.66409 5.56601 5.20318 5.81019 4.80169C6.05436 4.40019 6.40422 4.07355 6.82152 3.85748C7.23881 3.6414 7.70748 3.54422 8.17629 3.57653C8.64509 3.60885 9.09599 3.76944 9.47968 4.04073C9.86338 4.31203 10.1651 4.68359 10.3519 5.11479C10.5386 5.546 10.6033 6.02026 10.5387 6.48571C10.4741 6.95117 10.2828 7.38992 9.98568 7.75398C9.68857 8.11805 9.29708 8.39342 8.85401 8.55C8.8079 8.56654 8.76805 8.59695 8.73993 8.63707C8.71182 8.67718 8.69682 8.72502 8.69701 8.774V9.4C8.69701 9.58473 8.62363 9.76188 8.49301 9.8925C8.36239 10.0231 8.18524 10.0965 8.00051 10.0965C7.81579 10.0965 7.63863 10.0231 7.50801 9.8925C7.37739 9.76188 7.30401 9.58473 7.30401 9.4V8.774C7.30392 8.43697 7.4083 8.1082 7.60279 7.83294C7.79727 7.55769 8.0723 7.34949 8.39001 7.237C8.64354 7.14716 8.85837 6.9727 8.99832 6.743C9.13828 6.51331 9.19482 6.2424 9.15843 5.9759C9.12203 5.70939 8.99492 5.46357 8.7985 5.27981C8.60208 5.09605 8.34835 4.98458 8.08001 4.966Z" fill="currentColor"/>
<path d="M8.05005 11.571C8.00257 11.571 7.95705 11.5899 7.92348 11.6234C7.88991 11.657 7.87105 11.7025 7.87105 11.75C7.87105 11.7975 7.88991 11.843 7.92348 11.8766C7.95705 11.9101 8.00257 11.929 8.05005 11.929C8.09752 11.929 8.14305 11.9101 8.17662 11.8766C8.21019 11.843 8.22905 11.7975 8.22905 11.75C8.22905 11.7025 8.21019 11.657 8.17662 11.6234C8.14305 11.5899 8.09752 11.571 8.05005 11.571ZM8.05005 12.5C8.14854 12.5 8.24607 12.4806 8.33706 12.4429C8.42805 12.4052 8.51073 12.35 8.58038 12.2803C8.65002 12.2107 8.70527 12.128 8.74296 12.037C8.78065 11.946 8.80005 11.8485 8.80005 11.75C8.80005 11.6515 8.78065 11.554 8.74296 11.463C8.70527 11.372 8.65002 11.2893 8.58038 11.2197C8.51073 11.15 8.42805 11.0948 8.33706 11.0571C8.24607 11.0194 8.14854 11 8.05005 11C7.85114 11 7.66037 11.079 7.51972 11.2197C7.37907 11.3603 7.30005 11.5511 7.30005 11.75C7.30005 11.9489 7.37907 12.1397 7.51972 12.2803C7.66037 12.421 7.85114 12.5 8.05005 12.5Z" fill="currentColor"/>
</g>
<defs>
<clipPath id="clip0_19_309">
<rect width="16" height="16" fill="white"/>
</clipPath>
</defs>
</svg>
