<svg width="16" height="16" viewBox="0 0 16 16" fill="none" xmlns="http://www.w3.org/2000/svg">
<path d="M8.94003 6.01999C8.96503 4.32799 10.33 2.97599 11.991 2.99999C13.651 3.00199 14.996 4.37199 14.998 6.06299V6.83299C15.08 10.147 12.515 12.905 9.26003 13C9.05652 12.9979 8.86216 12.9151 8.71966 12.7698C8.57716 12.6244 8.49817 12.4285 8.50003 12.225C8.50003 11.797 8.84003 11.45 9.26003 11.45C9.99657 11.4367 10.7163 11.2275 11.3451 10.8438C11.974 10.4601 12.4893 9.91586 12.838 9.26699C12.8579 9.23211 12.8636 9.19096 12.854 9.15199C12.8495 9.13245 12.841 9.114 12.8293 9.09772C12.8175 9.08144 12.8027 9.06765 12.7856 9.05714C12.7685 9.04664 12.7495 9.03962 12.7296 9.03651C12.7098 9.03339 12.6895 9.03424 12.67 9.03899C12.4207 9.10354 12.1635 9.13283 11.906 9.12599C10.245 9.10199 8.91703 7.71099 8.94003 6.01999ZM1.52603 6.10699C1.50303 4.41499 2.83003 3.02399 4.49103 2.99999C6.15103 3.00199 7.49703 4.37199 7.49903 6.06299V6.83299C7.58003 10.147 5.01503 12.904 1.76003 13C1.55652 12.9979 1.36216 12.9151 1.21966 12.7698C1.07716 12.6244 0.998166 12.4285 1.00003 12.225C1.00003 11.797 1.34003 11.45 1.76003 11.45C2.49657 11.4367 3.21627 11.2275 3.84512 10.8438C4.47397 10.4601 4.98928 9.91586 5.33803 9.26699C5.35813 9.23184 5.36386 9.19028 5.35403 9.15099C5.34934 9.13154 5.34086 9.1132 5.32906 9.09703C5.31727 9.08086 5.30239 9.06718 5.2853 9.05678C5.2682 9.04637 5.24922 9.03944 5.22944 9.03639C5.20966 9.03334 5.18947 9.03422 5.17003 9.03899C4.94803 9.09599 4.72003 9.12499 4.49103 9.12599C2.86303 9.10199 1.54903 7.76499 1.52603 6.10699Z" fill="currentColor"/>
</svg>
