<svg width="16" height="16" viewBox="0 0 16 16" fill="none" xmlns="http://www.w3.org/2000/svg">
<path fill-rule="evenodd" clip-rule="evenodd" d="M4.4 1C4.29391 1 4.19217 1.04214 4.11716 1.11716C4.04214 1.19217 4 1.29391 4 1.4V5.172C3.99989 5.70239 3.7891 6.21101 3.414 6.586L2.586 7.414C2.2109 7.78899 2.00011 8.29761 2 8.828V14C2 14.2652 2.10536 14.5196 2.29289 14.7071C2.48043 14.8946 2.73478 15 3 15H13C13.2652 15 13.5196 14.8946 13.7071 14.7071C13.8946 14.5196 14 14.2652 14 14V8.828C13.9999 8.29761 13.7891 7.78899 13.414 7.414L12.586 6.586C12.2109 6.21101 12.0001 5.70239 12 5.172V1.4C12 1.29391 11.9579 1.19217 11.8828 1.11716C11.8078 1.04214 11.7061 1 11.6 1H11C10.7348 1 10.4804 1.10536 10.2929 1.29289C10.1054 1.48043 10 1.73478 10 2C10 2.53043 9.78929 3.03914 9.41421 3.41421C9.03914 3.78929 8.53043 4 8 4C7.46957 4 6.96086 3.78929 6.58579 3.41421C6.21071 3.03914 6 2.53043 6 2C6 1.73478 5.89464 1.48043 5.70711 1.29289C5.51957 1.10536 5.26522 1 5 1H4.4ZM7 6C6.73478 6 6.48043 6.10536 6.29289 6.29289C6.10536 6.48043 6 6.73478 6 7V7.5C6 7.63261 6.05268 7.75979 6.14645 7.85355C6.24021 7.94732 6.36739 8 6.5 8H7V10H6.5C6.36739 10 6.24021 10.0527 6.14645 10.1464C6.05268 10.2402 6 10.3674 6 10.5V11.5C6 11.6326 6.05268 11.7598 6.14645 11.8536C6.24021 11.9473 6.36739 12 6.5 12H9.5C9.63261 12 9.75979 11.9473 9.85355 11.8536C9.94732 11.7598 10 11.6326 10 11.5V10.5C10 10.3674 9.94732 10.2402 9.85355 10.1464C9.75979 10.0527 9.63261 10 9.5 10H9V6.5C9 6.36739 8.94732 6.24021 8.85355 6.14645C8.75979 6.05268 8.63261 6 8.5 6H7Z" fill="currentColor"/>
</svg>
