<svg width="16" height="16" viewBox="0 0 16 16" fill="none" xmlns="http://www.w3.org/2000/svg">
<path fill-rule="evenodd" clip-rule="evenodd" d="M1.174 8.798C1 9.128 1 9.562 1 10.43V11.57C1 12.438 1 12.873 1.174 13.202C1.31473 13.4679 1.53214 13.6853 1.798 13.826C2.068 13.969 2.408 13.994 3 13.999V14.19C3 14.48 3 14.624 3.058 14.734C3.10491 14.8226 3.17738 14.8951 3.266 14.942C3.376 15 3.521 15 3.81 15H4.19C4.48 15 4.624 15 4.734 14.942C4.82262 14.8951 4.89509 14.8226 4.942 14.734C5 14.624 5 14.479 5 14.19V14H11V14.19C11 14.48 11 14.624 11.058 14.734C11.1049 14.8226 11.1774 14.8951 11.266 14.942C11.376 15 11.521 15 11.81 15H12.19C12.48 15 12.624 15 12.734 14.942C12.8226 14.8951 12.8951 14.8226 12.942 14.734C13 14.624 13 14.479 13 14.19V13.999C13.592 13.994 13.932 13.969 14.202 13.826C14.4679 13.6853 14.6853 13.4679 14.826 13.202C15 12.872 15 12.438 15 11.57V10.43C15 9.562 15 9.127 14.826 8.798C14.6853 8.53214 14.4679 8.31473 14.202 8.174C13.872 8 13.438 8 12.57 8H3.43C2.562 8 2.127 8 1.798 8.174C1.53214 8.31473 1.31473 8.53214 1.174 8.798ZM7.058 10.266C7 10.376 7 10.521 7 10.81V11.19C7 11.48 7 11.624 7.058 11.734C7.10491 11.8226 7.17738 11.8951 7.266 11.942C7.376 12 7.521 12 7.81 12H11.19C11.48 12 11.624 12 11.734 11.942C11.8226 11.8951 11.8951 11.8226 11.942 11.734C12 11.624 12 11.479 12 11.19V10.81C12 10.52 12 10.376 11.942 10.266C11.8951 10.1774 11.8226 10.1049 11.734 10.058C11.624 10 11.479 10 11.19 10H7.81C7.52 10 7.376 10 7.266 10.058C7.17738 10.1049 7.10491 10.1774 7.058 10.266ZM6 10.81C6 10.52 6 10.376 5.942 10.266C5.89509 10.1774 5.82262 10.1049 5.734 10.058C5.624 10 5.479 10 5.19 10H4.81C4.52 10 4.376 10 4.266 10.058C4.17738 10.1049 4.10491 10.1774 4.058 10.266C4 10.376 4 10.521 4 10.81V11.19C4 11.48 4 11.624 4.058 11.734C4.10491 11.8226 4.17738 11.8951 4.266 11.942C4.376 12 4.521 12 4.81 12H5.19C5.48 12 5.624 12 5.734 11.942C5.82262 11.8951 5.89509 11.8226 5.942 11.734C6 11.624 6 11.479 6 11.19V10.81Z" fill="currentColor"/>
<path d="M11 1.324C11 1.208 11 1.15 11.023 1.106C11.0417 1.07065 11.0707 1.04174 11.106 1.023C11.15 1 11.208 1 11.324 1H11.676C11.792 1 11.85 1 11.894 1.023C11.9293 1.04174 11.9583 1.07065 11.977 1.106C12 1.15 12 1.208 12 1.324V7H11V1.324Z" fill="currentColor"/>
<path d="M8 4.324V7H7V4.324C7 4.208 7 4.15 7.023 4.106C7.04174 4.07065 7.07065 4.04174 7.106 4.023C7.15 4 7.208 4 7.324 4H7.676C7.792 4 7.85 4 7.894 4.023C7.92935 4.04174 7.95826 4.07065 7.977 4.106C8 4.15 8 4.208 8 4.324Z" fill="currentColor"/>
</svg>
