<svg width="16" height="16" viewBox="0 0 16 16" fill="none" xmlns="http://www.w3.org/2000/svg">
<path fill-rule="evenodd" clip-rule="evenodd" d="M6.00508 8.223L5.76808 9.041L4.88908 9.709C4.60758 9.25382 4.16131 8.9248 3.64325 8.79049C3.12519 8.65618 2.57528 8.72693 2.10808 8.988C1.61465 9.26435 1.24888 9.72273 1.08893 10.2652C0.928976 10.8076 0.987531 11.3911 1.25208 11.891C1.38153 12.1361 1.55867 12.3529 1.77309 12.5286C1.98752 12.7043 2.2349 12.8354 2.5007 12.9141C2.7665 12.9928 3.04535 13.0176 3.32087 12.987C3.59639 12.9564 3.86302 12.8711 4.10508 12.736C4.51407 12.507 4.83778 12.1515 5.02763 11.7229C5.21749 11.2944 5.26326 10.8158 5.15808 10.359L15.0001 4.261C14.0122 3.96405 12.9655 3.92015 11.9563 4.13333C10.947 4.3465 10.0075 4.80992 9.22408 5.481L6.00508 8.223ZM3.85908 10.444C3.80621 10.3456 3.7342 10.2588 3.64728 10.1886C3.56037 10.1185 3.46031 10.0664 3.35298 10.0355C3.24565 10.0045 3.13322 9.99536 3.0223 10.0085C2.91138 10.0217 2.80421 10.0568 2.70708 10.112C2.50762 10.222 2.35906 10.4056 2.29311 10.6237C2.22716 10.8417 2.24904 11.0769 2.35408 11.279C2.40695 11.3774 2.47896 11.4642 2.56588 11.5344C2.65279 11.6045 2.75285 11.6566 2.86018 11.6875C2.96751 11.7185 3.07994 11.7276 3.19086 11.7145C3.30178 11.7013 3.40895 11.6662 3.50608 11.611C3.70554 11.501 3.8541 11.3174 3.92005 11.0993C3.986 10.8813 3.96412 10.6461 3.85908 10.444Z" fill="currentColor"/>
<path d="M8.20288 9.65L9.22288 10.518C10.0063 11.1895 10.9459 11.6532 11.9554 11.8666C12.9649 12.08 14.0118 12.0361 14.9999 11.739L9.91488 8.589L8.20288 9.65Z" fill="currentColor"/>
<path fill-rule="evenodd" clip-rule="evenodd" d="M6.51006 6.479L5.15906 5.64C5.26424 5.18321 5.21847 4.70463 5.02861 4.27605C4.83875 3.84748 4.51505 3.49202 4.10606 3.263C3.86399 3.1279 3.59737 3.04255 3.32185 3.01197C3.04633 2.98138 2.76747 3.00618 2.50167 3.0849C2.23587 3.16363 1.98849 3.29469 1.77407 3.47039C1.55964 3.64608 1.3825 3.86287 1.25306 4.108C0.988508 4.60786 0.929952 5.19136 1.0899 5.73381C1.24986 6.27627 1.61563 6.73465 2.10906 7.011C3.09106 7.556 4.30606 7.231 4.89006 6.291L5.76906 6.958L5.80406 7.08L6.51206 6.478L6.51006 6.479ZM2.70706 5.888C2.80418 5.94316 2.91136 5.97835 3.02228 5.99149C3.1332 6.00464 3.24563 5.99548 3.35296 5.96454C3.46028 5.93361 3.56035 5.88154 3.64726 5.81138C3.73417 5.74122 3.80618 5.65439 3.85906 5.556C3.9641 5.35388 3.98598 5.1187 3.92003 4.90067C3.85408 4.68264 3.70552 4.49902 3.50606 4.389C3.40893 4.33384 3.30176 4.29866 3.19084 4.28551C3.07992 4.27237 2.96749 4.28153 2.86016 4.31246C2.75283 4.34339 2.65277 4.39547 2.56585 4.46563C2.47894 4.53579 2.40693 4.62261 2.35406 4.721C2.24902 4.92313 2.22714 5.1583 2.29309 5.37633C2.35904 5.59437 2.5076 5.77799 2.70706 5.888Z" fill="currentColor"/>
</svg>
