<svg width="16" height="16" viewBox="0 0 16 16" fill="none" xmlns="http://www.w3.org/2000/svg">
<path fill-rule="evenodd" clip-rule="evenodd" d="M10.4614 7.38462C10.4614 9.08395 9.08384 10.4615 7.3845 10.4615C5.68517 10.4615 4.30758 9.08395 4.30758 7.38462C4.30758 5.68528 5.68517 4.30769 7.3845 4.30769C9.08384 4.30769 10.4614 5.68528 10.4614 7.38462ZM10.1515 11.4571C9.36298 11.9938 8.41039 12.3077 7.3845 12.3077C4.66556 12.3077 2.46143 10.1036 2.46143 7.38462C2.46143 4.66568 4.66556 2.46154 7.3845 2.46154C10.1034 2.46154 12.3076 4.66568 12.3076 7.38462C12.3076 8.4105 11.9937 9.36309 11.457 10.1517L14.4987 13.1935C14.8592 13.554 14.8592 14.1383 14.4987 14.4988C14.1382 14.8593 13.5539 14.8593 13.1934 14.4988L10.1515 11.4571Z" fill="currentColor"/>
</svg>
