<svg width="16" height="16" viewBox="0 0 16 16" fill="none" xmlns="http://www.w3.org/2000/svg">
<path d="M8.58 1C8.69813 1.00084 8.81214 1.04348 8.90184 1.12036C8.99153 1.19724 9.0511 1.30339 9.07 1.42L9.32 2.9C9.3355 2.98726 9.37437 3.06869 9.43248 3.13561C9.4906 3.20252 9.56577 3.25243 9.65 3.28C9.83 3.339 10.003 3.412 10.17 3.5C10.2468 3.54682 10.335 3.57158 10.425 3.57158C10.515 3.57158 10.6032 3.54682 10.68 3.5L11.9 2.63C11.9898 2.55517 12.1031 2.51419 12.22 2.51419C12.3369 2.51419 12.4502 2.55517 12.54 2.63L13.36 3.45C13.4421 3.53385 13.4921 3.64391 13.5013 3.76092C13.5104 3.87792 13.4781 3.99442 13.41 4.09L12.54 5.31C12.4932 5.38682 12.4684 5.47504 12.4684 5.565C12.4684 5.65496 12.4932 5.74318 12.54 5.82C12.628 5.987 12.701 6.16 12.76 6.34C12.7876 6.42423 12.8375 6.4994 12.9044 6.55752C12.9713 6.61563 13.0527 6.6545 13.14 6.67L14.62 6.92C14.7366 6.9389 14.8428 6.99847 14.9196 7.08816C14.9965 7.17786 15.0392 7.29187 15.04 7.41V8.58C15.0392 8.69813 14.9965 8.81214 14.9196 8.90184C14.8428 8.99153 14.7366 9.0511 14.62 9.07L13.14 9.32C13.0527 9.3355 12.9713 9.37437 12.9044 9.43248C12.8375 9.4906 12.7876 9.56577 12.76 9.65C12.7013 9.82917 12.6277 10.0031 12.54 10.17C12.4932 10.2468 12.4684 10.335 12.4684 10.425C12.4684 10.515 12.4932 10.6032 12.54 10.68L13.41 11.9C13.4781 11.9956 13.5104 12.1121 13.5013 12.2291C13.4921 12.3461 13.4421 12.4562 13.36 12.54L12.54 13.36C12.4562 13.4421 12.3461 13.4921 12.2291 13.5013C12.1121 13.5104 11.9956 13.4781 11.9 13.41L10.68 12.54C10.6032 12.4932 10.515 12.4684 10.425 12.4684C10.335 12.4684 10.2468 12.4932 10.17 12.54C10.0031 12.6277 9.82917 12.7013 9.65 12.76C9.56577 12.7876 9.4906 12.8375 9.43248 12.9044C9.37437 12.9713 9.3355 13.0527 9.32 13.14L9.07 14.62C9.0511 14.7366 8.99153 14.8428 8.90184 14.9196C8.81214 14.9965 8.69813 15.0392 8.58 15.04H7.42C7.30187 15.0392 7.18786 14.9965 7.09817 14.9196C7.00847 14.8428 6.9489 14.7366 6.93 14.62L6.68 13.1C6.6645 13.0127 6.62563 12.9313 6.56752 12.8644C6.5094 12.7975 6.43423 12.7476 6.35 12.72C6.17083 12.6613 5.99689 12.5877 5.83 12.5C5.75318 12.4532 5.66496 12.4284 5.575 12.4284C5.48504 12.4284 5.39682 12.4532 5.32 12.5L4.1 13.37C4.00442 13.4381 3.88792 13.4704 3.77092 13.4613C3.65391 13.4521 3.54385 13.4021 3.46 13.32L2.64 12.5C2.56517 12.4102 2.52419 12.2969 2.52419 12.18C2.52419 12.0631 2.56517 11.9498 2.64 11.86L3.51 10.64C3.55682 10.5632 3.58158 10.475 3.58158 10.385C3.58158 10.295 3.55682 10.2068 3.51 10.13C3.42229 9.96311 3.3487 9.78917 3.29 9.61C3.26243 9.52577 3.21252 9.4506 3.14561 9.39248C3.07869 9.33437 2.99726 9.2955 2.91 9.28L1.42 9.07C1.30339 9.0511 1.19724 8.99153 1.12036 8.90184C1.04348 8.81214 1.00084 8.69813 1 8.58V7.42C1.00084 7.30187 1.04348 7.18786 1.12036 7.09817C1.19724 7.00847 1.30339 6.9489 1.42 6.93L2.9 6.68C2.98726 6.6645 3.06869 6.62563 3.13561 6.56752C3.20252 6.5094 3.25243 6.43423 3.28 6.35C3.3387 6.17083 3.41229 5.99689 3.5 5.83C3.54682 5.75318 3.57158 5.66496 3.57158 5.575C3.57158 5.48504 3.54682 5.39682 3.5 5.32L2.59 4.1C2.51517 4.01016 2.47419 3.89693 2.47419 3.78C2.47419 3.66307 2.51517 3.54984 2.59 3.46L3.41 2.64C3.49984 2.56517 3.61307 2.52419 3.73 2.52419C3.84693 2.52419 3.96016 2.56517 4.05 2.64L5.27 3.51C5.34682 3.55682 5.43504 3.58158 5.525 3.58158C5.61496 3.58158 5.70318 3.55682 5.78 3.51C5.94689 3.42229 6.12083 3.3487 6.3 3.29C6.38423 3.26243 6.4594 3.21252 6.51752 3.14561C6.57563 3.07869 6.6145 2.99726 6.63 2.91L6.93 1.42C6.9489 1.30339 7.00847 1.19724 7.09817 1.12036C7.18786 1.04348 7.30187 1.00084 7.42 1H8.58ZM8 6C7.46957 6 6.96086 6.21071 6.58579 6.58579C6.21071 6.96086 6 7.46957 6 8C6 8.53043 6.21071 9.03914 6.58579 9.41421C6.96086 9.78929 7.46957 10 8 10C8.53043 10 9.03914 9.78929 9.41421 9.41421C9.78929 9.03914 10 8.53043 10 8C10 7.46957 9.78929 6.96086 9.41421 6.58579C9.03914 6.21071 8.53043 6 8 6Z" fill="currentColor"/>
</svg>
