<svg width="16" height="16" viewBox="0 0 16 16" fill="none" xmlns="http://www.w3.org/2000/svg">
<path d="M3.01079 10C4.05518 10 4.97364 9.46684 5.51079 8.65844C6.04793 9.46684 6.9664 10 8.01079 10C9.05518 10 9.97365 9.46684 10.5108 8.65844C11.0479 9.46684 11.9664 10 13.0108 10C13.3538 10 13.6833 9.94247 13.9902 9.83653V13.5C13.9902 14.3284 13.3187 15 12.4902 15H10.5C10.2239 15 10 14.7761 10 14.5V13C10 12.4477 9.55229 12 9 12H7C6.44772 12 6 12.4477 6 13V14.5C6 14.7761 5.77614 15 5.5 15H3.49023C2.66181 15 1.99023 14.3284 1.99023 13.5V9.82201C2.30876 9.9372 2.6524 10 3.01079 10Z" fill="currentColor"/>
<path d="M4.92886 7.49493C4.99698 7.22732 5.21443 6.99999 5.49057 6.99999C5.76671 6.99999 5.98416 7.22732 6.05228 7.49493C6.27254 8.36011 7.05683 8.99999 7.99057 8.99999C8.92431 8.99999 9.7086 8.36011 9.92886 7.49493C9.99698 7.22732 10.2144 6.99999 10.4906 6.99999C10.7667 6.99999 10.9842 7.22732 11.0523 7.49493C11.2725 8.36011 12.0568 8.99999 12.9906 8.99999C14.0154 8.99999 14.8602 8.22916 14.9768 7.23565C14.9949 7.08146 14.9544 6.9277 14.885 6.78884L12.267 1.55278C12.0976 1.21399 11.7513 0.999992 11.3725 0.999992H4.6086C4.22983 0.999992 3.88357 1.21399 3.71418 1.55278L1.09614 6.78884C1.02672 6.9277 0.986209 7.08146 1.00431 7.23565C1.12092 8.22916 1.96573 8.99999 2.99057 8.99999C3.92431 8.99999 4.7086 8.36011 4.92886 7.49493Z" fill="currentColor"/>
</svg>
