<svg width="16" height="16" viewBox="0 0 16 16" fill="none" xmlns="http://www.w3.org/2000/svg">
<g clip-path="url(#clip0_19_306)">
<path d="M5.84059 0C5.63119 0.000194444 5.42388 0.0416365 5.2305 0.121959C5.03711 0.202282 4.86145 0.319913 4.71353 0.468133C4.56561 0.616352 4.44835 0.79226 4.36842 0.985807C4.28849 1.17935 4.24747 1.38675 4.24771 1.59615C4.24751 1.80553 4.28856 2.01289 4.3685 2.2064C4.44845 2.39991 4.56573 2.57579 4.71364 2.72397C4.86155 2.87216 5.03721 2.98977 5.23057 3.07007C5.42393 3.15037 5.63122 3.19181 5.84059 3.192H7.43347V1.59615C7.43373 1.38675 7.39267 1.17935 7.3128 0.985807C7.23287 0.79226 7.1156 0.616352 6.96767 0.468133C6.81973 0.319913 6.64407 0.202282 6.45069 0.121959C6.25731 0.0416365 6.04999 0.000194444 5.84059 0ZM5.84059 4.25629H1.59289C1.38351 4.25649 1.17623 4.29792 0.982867 4.37823C0.7895 4.45853 0.613847 4.57613 0.465933 4.72432C0.31802 4.87251 0.200743 5.04839 0.120798 5.24189C0.0408533 5.43541 -0.000193649 5.64277 9.91998e-07 5.85215C-0.000232587 6.06155 0.0407856 6.26895 0.120713 6.46249C0.200641 6.65604 0.317911 6.83193 0.465829 6.98013C0.613746 7.1284 0.789413 7.246 0.982793 7.32633C1.17618 7.40667 1.38349 7.44813 1.59289 7.44827H5.84059C6.04999 7.44813 6.25731 7.40667 6.45069 7.32633C6.64407 7.246 6.81973 7.1284 6.96767 6.98013C7.1156 6.83193 7.23287 6.65604 7.3128 6.46249C7.39267 6.26895 7.43373 6.06155 7.43347 5.85215C7.43367 5.64277 7.3926 5.43541 7.31267 5.24189C7.23273 5.04839 7.11547 4.87251 6.96753 4.72432C6.81967 4.57613 6.64399 4.45853 6.45062 4.37823C6.25726 4.29792 6.04997 4.25649 5.84059 4.25629Z" fill="currentColor"/>
<path d="M15.929 5.85215C15.9292 5.64277 15.8881 5.43541 15.8082 5.24189C15.7282 5.04839 15.611 4.87251 15.463 4.72432C15.3151 4.57613 15.1394 4.45853 14.9461 4.37823C14.7527 4.29792 14.5454 4.25649 14.3361 4.25629C14.1267 4.25649 13.9194 4.29792 13.726 4.37823C13.5327 4.45853 13.357 4.57613 13.2091 4.72432C13.0612 4.87251 12.9439 5.04839 12.864 5.24189C12.784 5.43541 12.743 5.64277 12.7432 5.85215V7.44827H14.3361C14.5455 7.44813 14.7528 7.40667 14.9462 7.32633C15.1396 7.246 15.3152 7.1284 15.4631 6.98013C15.611 6.83193 15.7283 6.65604 15.8082 6.46249C15.8882 6.26895 15.9292 6.06155 15.929 5.85215ZM11.6812 5.85215V1.59615C11.6815 1.38675 11.6405 1.17935 11.5606 0.985807C11.4806 0.79226 11.3633 0.616352 11.2154 0.468133C11.0675 0.319913 10.8918 0.202282 10.6984 0.121959C10.5051 0.0416365 10.2978 0.000194444 10.0884 0C9.87895 0.000194444 9.67162 0.0416365 9.47828 0.121959C9.28488 0.202282 9.10922 0.319913 8.96128 0.468133C8.81335 0.616352 8.69608 0.79226 8.61615 0.985807C8.53622 1.17935 8.49522 1.38675 8.49548 1.59615V5.85215C8.49522 6.06155 8.53622 6.26895 8.61615 6.46249C8.69608 6.65604 8.81335 6.83193 8.96128 6.98013C9.10922 7.1284 9.28488 7.246 9.47828 7.32633C9.67162 7.40667 9.87895 7.44813 10.0884 7.44827C10.2978 7.44813 10.5051 7.40667 10.6984 7.32633C10.8918 7.246 11.0675 7.1284 11.2154 6.98013C11.3633 6.83193 11.4806 6.65604 11.5606 6.46249C11.6405 6.26895 11.6815 6.06155 11.6812 5.85215Z" fill="currentColor"/>
<path d="M1.35007e-06 10.2234C-0.000193291 10.4328 0.0408536 10.6402 0.120799 10.8337C0.200743 11.0272 0.318021 11.2031 0.465934 11.3513C0.613847 11.4995 0.7895 11.6171 0.982867 11.6973C1.17623 11.7777 1.38351 11.8191 1.59289 11.8193C1.80227 11.8191 2.00955 11.7777 2.20292 11.6973C2.39628 11.6171 2.57193 11.4995 2.71985 11.3513C2.86776 11.2031 2.98504 11.0272 3.06498 10.8337C3.14493 10.6402 3.18597 10.4328 3.18578 10.2234V8.62727H1.59289C1.38347 8.62747 1.17613 8.66893 0.982727 8.74927C0.789327 8.8296 0.613645 8.94727 0.465724 9.09553C0.317803 9.2438 0.200538 9.41973 0.120628 9.61327C0.0407183 9.80687 -0.000271177 10.0139 1.35007e-06 10.2234ZM4.24771 10.2234V14.4794C4.24747 14.6888 4.28849 14.8962 4.36842 15.0898C4.44835 15.2833 4.56561 15.4592 4.71353 15.6075C4.86145 15.7557 5.03711 15.8733 5.2305 15.9536C5.42388 16.0339 5.63119 16.0754 5.84059 16.0756C6.04999 16.0754 6.25731 16.0339 6.45069 15.9536C6.64407 15.8733 6.81973 15.7557 6.96767 15.6075C7.1156 15.4592 7.23287 15.2833 7.3128 15.0898C7.39267 14.8962 7.43373 14.6888 7.43347 14.4794V10.2237C7.43373 10.0143 7.39267 9.80693 7.3128 9.6134C7.23287 9.41987 7.1156 9.24393 6.96767 9.09573C6.81973 8.94747 6.64407 8.82987 6.45069 8.74953C6.25731 8.6692 6.04999 8.6278 5.84059 8.6276C5.63119 8.6278 5.42388 8.6692 5.2305 8.74953C5.03711 8.82987 4.86145 8.94747 4.71353 9.09573C4.56561 9.24393 4.44835 9.41987 4.36842 9.6134C4.28849 9.80693 4.24747 10.014 4.24771 10.2234Z" fill="currentColor"/>
<path d="M10.0884 15.9607C10.2978 15.9605 10.5051 15.919 10.6984 15.8387C10.8918 15.7584 11.0675 15.6407 11.2154 15.4925C11.3634 15.3443 11.4806 15.1684 11.5606 14.9749C11.6405 14.7813 11.6815 14.5739 11.6812 14.3645C11.6814 14.1551 11.6404 13.9478 11.5604 13.7543C11.4805 13.5607 11.3632 13.3849 11.2153 13.2367C11.0674 13.0885 10.8918 12.9709 10.6984 12.8906C10.505 12.8103 10.2978 12.7689 10.0884 12.7687H8.49548V14.3645C8.49522 14.5739 8.53622 14.7813 8.61615 14.9749C8.69608 15.1684 8.81335 15.3443 8.96128 15.4925C9.10922 15.6407 9.28488 15.7584 9.47828 15.8387C9.67162 15.919 9.87895 15.9605 10.0884 15.9607ZM10.0884 11.7044H14.3361C14.5454 11.7042 14.7527 11.6627 14.9461 11.5825C15.1394 11.5021 15.3151 11.3845 15.463 11.2363C15.611 11.0881 15.7282 10.9123 15.8082 10.7188C15.8881 10.5253 15.9292 10.3179 15.929 10.1085C15.9292 9.89913 15.8882 9.69173 15.8082 9.4982C15.7283 9.3046 15.611 9.12873 15.4631 8.98053C15.3152 8.83227 15.1396 8.71467 14.9462 8.63433C14.7528 8.554 14.5455 8.51254 14.3361 8.5124H10.0884C9.87895 8.51254 9.67162 8.554 9.47828 8.63433C9.28488 8.71467 9.10922 8.83227 8.96128 8.98053C8.81335 9.12873 8.69608 9.3046 8.61615 9.4982C8.53622 9.69173 8.49522 9.89913 8.49548 10.1085C8.49528 10.3179 8.53628 10.5253 8.61628 10.7188C8.69622 10.9123 8.81348 11.0881 8.96142 11.2363C9.10928 11.3845 9.28495 11.5021 9.47835 11.5825C9.67168 11.6627 9.87895 11.7042 10.0884 11.7044Z" fill="currentColor"/>
</g>
<defs>
<clipPath id="clip0_19_306">
<rect width="16" height="16" fill="white"/>
</clipPath>
</defs>
</svg>
