<svg width="16" height="16" viewBox="0 0 16 16" fill="none" xmlns="http://www.w3.org/2000/svg">
<path d="M5.69198 3.907C5.99598 5.363 5.43398 6.959 5.10698 7.749C5.07456 7.82618 5.02287 7.89374 4.95686 7.94522C4.89085 7.99669 4.81273 8.03036 4.72998 8.043L2.84798 8.343C2.76261 8.3584 2.67462 8.3494 2.59413 8.31703C2.51364 8.28465 2.44392 8.23023 2.39298 8.16C1.75292 7.21026 1.31173 6.14079 1.09598 5.016C0.715984 2.975 1.47498 1.244 3.13298 1.022C4.79198 0.800001 5.35098 2.274 5.69198 3.907ZM3.20698 9.635L5.12798 9.232C5.24514 9.20685 5.36745 9.22487 5.47237 9.28276C5.57729 9.34064 5.65777 9.43448 5.69898 9.547C6.04898 10.517 6.37898 11.79 4.93398 11.984C3.66598 12.154 3.02998 10.961 2.85398 10.131C2.80398 9.896 2.97198 9.685 3.20698 9.635ZM10.308 6.907C10.004 8.363 10.566 9.959 10.893 10.749C10.9254 10.8262 10.9771 10.8937 11.0431 10.9452C11.1091 10.9967 11.1872 11.0304 11.27 11.043L13.152 11.343C13.2374 11.3583 13.3253 11.3492 13.4058 11.3169C13.4862 11.2845 13.556 11.2301 13.607 11.16C14.247 10.2102 14.6882 9.14077 14.904 8.016C15.284 5.975 14.525 4.244 12.867 4.022C11.208 3.8 10.649 5.274 10.308 6.907ZM12.793 12.635L10.872 12.232C10.7548 12.2069 10.6325 12.2249 10.5276 12.2828C10.4227 12.3406 10.3422 12.4345 10.301 12.547C9.95098 13.517 9.62098 14.79 11.066 14.984C12.334 15.154 12.97 13.961 13.146 13.131C13.196 12.896 13.028 12.685 12.792 12.635H12.793Z" fill="currentColor"/>
</svg>
