<svg width="16" height="16" viewBox="0 0 16 16" fill="none" xmlns="http://www.w3.org/2000/svg">
<path d="M11.293 3.484L12.352 2.4C9.59 -0.318 4.379 1.084 4.379 5.196C4.379 5.756 4.497 6.267 4.685 6.711H6.424C6.231 6.54 6.152 6.359 6.058 6.123C5.93986 5.82858 5.88303 5.51314 5.891 5.196C5.891 2.571 9.405 1.626 11.293 3.484ZM4.959 11.849L3.625 12.563C5.708 16.479 12.375 15.516 12.375 10.816C12.375 10.441 12.333 10.093 12.249 9.771L10.613 9.774C10.662 9.848 10.705 9.926 10.745 10.008C10.814 10.192 10.863 10.476 10.863 10.816C10.863 13.814 6.351 14.466 4.959 11.849ZM1.75 7.402C1.55109 7.402 1.36032 7.48102 1.21967 7.62167C1.07902 7.76232 1 7.95309 1 8.152C1 8.35091 1.07902 8.54168 1.21967 8.68233C1.36032 8.82298 1.55109 8.902 1.75 8.902H14.25C14.4489 8.902 14.6397 8.82298 14.7803 8.68233C14.921 8.54168 15 8.35091 15 8.152C15 7.95309 14.921 7.76232 14.7803 7.62167C14.6397 7.48102 14.4489 7.402 14.25 7.402H1.75Z" fill="currentColor"/>
</svg>
