<svg width="16" height="16" viewBox="0 0 16 16" fill="none" xmlns="http://www.w3.org/2000/svg">
<path d="M12 1C12.7956 1 13.5587 1.31607 14.1213 1.87868C14.6839 2.44129 15 3.20435 15 4V8C15 8.79565 14.6839 9.55871 14.1213 10.1213C13.5587 10.6839 12.7956 11 12 11H11V12C11 12.7956 10.6839 13.5587 10.1213 14.1213C9.55871 14.6839 8.79565 15 8 15H4C3.20435 15 2.44129 14.6839 1.87868 14.1213C1.31607 13.5587 1 12.7956 1 12V8C1 7.20435 1.31607 6.44129 1.87868 5.87868C2.44129 5.31607 3.20435 5 4 5H5V4C5 3.20435 5.31607 2.44129 5.87868 1.87868C6.44129 1.31607 7.20435 1 8 1H12ZM9.5 10C9.5 9.86739 9.55268 9.74021 9.64645 9.64645C9.74021 9.55268 9.86739 9.5 10 9.5H12C12.3978 9.5 12.7794 9.34196 13.0607 9.06066C13.342 8.77936 13.5 8.39782 13.5 8V4C13.5 3.60218 13.342 3.22064 13.0607 2.93934C12.7794 2.65804 12.3978 2.5 12 2.5H8C7.60218 2.5 7.22064 2.65804 6.93934 2.93934C6.65804 3.22064 6.5 3.60218 6.5 4V6C6.5 6.13261 6.44732 6.25979 6.35355 6.35355C6.25979 6.44732 6.13261 6.5 6 6.5H4C3.60218 6.5 3.22064 6.65804 2.93934 6.93934C2.65804 7.22064 2.5 7.60218 2.5 8V12C2.5 12.3978 2.65804 12.7794 2.93934 13.0607C3.22064 13.342 3.60218 13.5 4 13.5H8C8.39782 13.5 8.77936 13.342 9.06066 13.0607C9.34196 12.7794 9.5 12.3978 9.5 12V10Z" fill="currentColor"/>
<path d="M10.25 8C10.4489 8 10.6397 7.92098 10.7803 7.78033C10.921 7.63968 11 7.44891 11 7.25V5.75C11 5.55109 10.921 5.36032 10.7803 5.21967C10.6397 5.07902 10.4489 5 10.25 5H8.75C8.55109 5 8.36032 5.07902 8.21967 5.21967C8.07902 5.36032 8 5.55109 8 5.75C8 5.94891 8.07902 6.13968 8.21967 6.28033C8.36032 6.42098 8.55109 6.5 8.75 6.5H9.5V7.25C9.5 7.664 9.836 8 10.25 8ZM5 8.75C5 8.55109 5.07902 8.36032 5.21967 8.21967C5.36032 8.07902 5.55109 8 5.75 8C5.94891 8 6.13968 8.07902 6.28033 8.21967C6.42098 8.36032 6.5 8.55109 6.5 8.75V9.5H7.25C7.44891 9.5 7.63968 9.57902 7.78033 9.71967C7.92098 9.86032 8 10.0511 8 10.25C8 10.4489 7.92098 10.6397 7.78033 10.7803C7.63968 10.921 7.44891 11 7.25 11H5.75C5.55109 11 5.36032 10.921 5.21967 10.7803C5.07902 10.6397 5 10.4489 5 10.25V8.75Z" fill="currentColor"/>
</svg>
