<svg width="16" height="16" viewBox="0 0 16 16" fill="none" xmlns="http://www.w3.org/2000/svg">
<path d="M7.99828 4.00012C8.41802 4.00012 8.75828 3.65986 8.75828 3.24012V1.76012C8.75828 1.34039 8.41802 1.00012 7.99828 1.00012C7.57854 1.00012 7.23828 1.34039 7.23828 1.76012V3.24012C7.23828 3.65986 7.57854 4.00012 7.99828 4.00012Z" fill="currentColor"/>
<path d="M4 7.9983C4 7.57856 3.65974 7.2383 3.24 7.2383H1.76C1.34026 7.2383 1 7.57856 1 7.99829C1 8.41803 1.34026 8.7583 1.76 8.7583H3.24C3.65974 8.7583 4 8.41803 4 7.9983Z" fill="currentColor"/>
<path d="M14.2395 7.2389C14.6593 7.2389 14.9995 7.57916 14.9995 7.9989C14.9995 8.41864 14.6593 8.7589 14.2395 8.7589H12.7595C12.3398 8.7589 11.9995 8.41864 11.9995 7.9989C11.9995 7.57916 12.3398 7.2389 12.7595 7.2389H14.2395Z" fill="currentColor"/>
<path d="M11.8748 3.04856C12.1716 2.75176 12.6528 2.75176 12.9496 3.04856C13.2464 3.34536 13.2464 3.82656 12.9496 4.12336L11.9031 5.16988C11.6063 5.46668 11.1251 5.46668 10.8283 5.16988C10.5315 4.87308 10.5315 4.39188 10.8283 4.09508L11.8748 3.04856Z" fill="currentColor"/>
<path d="M3.05048 4.1232C2.75368 3.8264 2.75368 3.3452 3.05048 3.0484C3.34728 2.7516 3.82849 2.7516 4.12529 3.0484L5.1718 4.09492C5.4686 4.39172 5.4686 4.87292 5.1718 5.16972C4.87501 5.46652 4.3938 5.46652 4.097 5.16972L3.05048 4.1232Z" fill="currentColor"/>
<path d="M10.1145 5.8839C11.2861 7.05547 11.2861 8.95497 10.1145 10.1265C8.94291 11.2981 7.04341 11.2981 5.87184 10.1265C4.70027 8.95497 4.70027 7.05547 5.87184 5.8839C7.04341 4.71233 8.94291 4.71233 10.1145 5.8839Z" fill="currentColor"/>
<path d="M10.8286 10.8266C10.5318 11.1234 10.5318 11.6046 10.8286 11.9014L11.8751 12.9479C12.1719 13.2447 12.6531 13.2447 12.9499 12.9479C13.2467 12.6511 13.2467 12.1699 12.9499 11.8731L11.9034 10.8266C11.6066 10.5298 11.1254 10.5298 10.8286 10.8266Z" fill="currentColor"/>
<path d="M5.17156 10.8267C4.87476 10.5299 4.39356 10.5299 4.09676 10.8267L3.05024 11.8733C2.75344 12.1701 2.75344 12.6513 3.05024 12.9481C3.34704 13.2449 3.82824 13.2449 4.12504 12.9481L5.17156 11.9015C5.46836 11.6047 5.46836 11.1235 5.17156 10.8267Z" fill="currentColor"/>
<path d="M8.75877 14.2396C8.75877 14.6593 8.41851 14.9996 7.99878 14.9996C7.57904 14.9996 7.23877 14.6593 7.23877 14.2396V12.7596C7.23877 12.3398 7.57904 11.9996 7.99878 11.9996C8.41851 11.9996 8.75877 12.3398 8.75877 12.7596V14.2396Z" fill="currentColor"/>
</svg>
