<svg width="16" height="16" viewBox="0 0 16 16" fill="none" xmlns="http://www.w3.org/2000/svg">
<path d="M1.10204 3.89804L2.53564 2.46444C3.38454 1.61554 4.50726 1.10341 5.69621 1.01404C5.86306 1.0015 5.99782 1.13816 6.02301 1.30358C6.16928 2.26407 6.99876 2.99997 8.00011 2.99997C9.00147 2.99997 9.83094 2.26407 9.97721 1.30358C10.0024 1.13816 10.1372 1.0015 10.304 1.01404C11.493 1.10341 12.6157 1.61554 13.4646 2.46444L14.8982 3.89804C14.9591 3.95892 14.9741 4.05191 14.9356 4.12891L13.6242 6.75178C13.5632 6.87388 13.4004 6.90029 13.3039 6.80376L12.1708 5.67068C12.1078 5.60769 12.0001 5.6523 12.0001 5.7414V14.2893C12.0001 14.4131 11.9158 14.5211 11.7957 14.5511C9.30366 15.1741 6.69656 15.1741 4.20449 14.5511C4.08438 14.5211 4.00011 14.4131 4.00011 14.2893V5.7414C4.00011 5.65231 3.8924 5.60769 3.8294 5.67068L2.69632 6.80376C2.59979 6.90029 2.43707 6.87388 2.37602 6.75178L1.06458 4.12891C1.02608 4.05191 1.04117 3.95892 1.10204 3.89804Z" fill="currentColor"/>
</svg>
