<svg width="16" height="16" viewBox="0 0 16 16" fill="none" xmlns="http://www.w3.org/2000/svg">
<path d="M15 3.99301C14.5174 4.20353 13.9988 4.34578 13.4537 4.41007C14.0098 4.08234 14.4364 3.56229 14.6376 2.94324C14.1173 3.24708 13.541 3.46784 12.9277 3.58619C12.4364 3.07183 11.7369 2.74979 10.9624 2.74979C9.47566 2.74979 8.26987 3.93668 8.26987 5.40124C8.26987 5.60835 8.29415 5.80977 8.33923 6.00437C6.10048 5.89341 4.11722 4.83795 2.78888 3.23455C2.55767 3.62716 2.42472 4.08234 2.42472 4.56711C2.42472 5.48659 2.90045 6.29852 3.62242 6.77362C3.1808 6.7594 2.76576 6.64048 2.40275 6.44191V6.47605C2.40275 7.76024 3.33051 8.83164 4.56289 9.07516C4.3363 9.13547 4.09873 9.16733 3.85364 9.16733C3.68022 9.16733 3.51086 9.1514 3.34669 9.12068C3.68947 10.1733 4.6837 10.9403 5.86233 10.9607C4.94035 11.672 3.77907 12.0959 2.51778 12.0959C2.30044 12.0959 2.08599 12.0834 1.875 12.0589C3.06693 12.8117 4.48197 13.2498 6.00221 13.2498C10.956 13.2498 13.6641 9.21114 13.6641 5.70849C13.6641 5.59469 13.6613 5.47976 13.6561 5.36597C14.182 4.99157 14.6387 4.52557 14.9989 3.99472L15 3.99301Z" fill="currentColor"/>
</svg>
