<svg width="16" height="16" viewBox="0 0 16 16" fill="none" xmlns="http://www.w3.org/2000/svg">
<path d="M10.8196 3.15118L14.6253 5.10724C14.9872 5.29306 15.0128 5.52901 14.9963 5.65432L13.1772 8.97351C13.1772 8.97351 12.907 9.18073 12.5152 8.94661L9.08599 6.89825C9.06802 6.88766 9.04808 6.88084 9.02739 6.87819C9.0067 6.87554 8.98568 6.87712 8.96562 6.88284C8.94556 6.88855 8.92686 6.89829 8.91067 6.91144C8.89449 6.9246 8.88114 6.94091 8.87144 6.95938L8.7229 7.24973C8.71175 7.27127 8.70594 7.29516 8.70594 7.31941C8.70594 7.34367 8.71175 7.36756 8.7229 7.3891L11.9064 13.6075C11.9449 13.6792 11.9688 13.7577 11.9765 13.8387C11.9843 13.9196 11.9758 14.0013 11.9516 14.079C11.9274 14.1566 11.888 14.2287 11.8356 14.2909C11.7832 14.3531 11.7189 14.4042 11.6466 14.4413C11.5742 14.4783 11.4951 14.5005 11.414 14.5066C11.3329 14.5128 11.2514 14.5026 11.1743 14.4768C11.0971 14.4511 11.0259 14.4101 10.9648 14.3565C10.9037 14.3028 10.8539 14.2375 10.8183 14.1644L7.12994 6.95938C7.12042 6.94084 7.10722 6.92445 7.09113 6.9112C7.07505 6.89796 7.05643 6.88814 7.03641 6.88236C7.01607 6.87643 6.99473 6.87473 6.97371 6.87735C6.95268 6.87998 6.93242 6.88689 6.91416 6.89764L3.48495 8.946C3.09373 9.18011 2.87429 9.01385 2.82355 8.97289C2.73499 8.89221 1.02492 5.77348 1.00381 5.65554C0.986694 5.53084 1.01359 5.29184 1.37546 5.10846L5.18122 3.1524L5.04185 2.87978C4.97191 2.73593 4.96114 2.5704 5.01185 2.4187C5.06255 2.267 5.1707 2.14122 5.31309 2.06835C5.45547 1.99548 5.62075 1.98132 5.77346 2.02891C5.92616 2.0765 6.05413 2.18205 6.1299 2.32291L7.86468 5.71117C7.87732 5.73629 7.89671 5.75738 7.92069 5.77207C7.94467 5.78675 7.97227 5.79445 8.00038 5.7943C8.02856 5.79436 8.0562 5.78662 8.08026 5.77195C8.10432 5.75728 8.12385 5.73625 8.1367 5.71117L9.87086 2.32169C9.94664 2.18083 10.0746 2.07528 10.2273 2.02768C10.38 1.98009 10.5453 1.99425 10.6877 2.06713C10.8301 2.14 10.9382 2.26578 10.9889 2.41748C11.0396 2.56917 11.0289 2.7347 10.9589 2.87855L10.8196 3.15118Z" fill="currentColor"/>
<path d="M4.09443 13.6078C4.0559 13.6794 4.03205 13.758 4.02428 13.8389C4.01651 13.9199 4.02497 14.0016 4.04917 14.0792C4.07337 14.1569 4.11281 14.2289 4.1652 14.2911C4.21759 14.3533 4.28187 14.4044 4.35426 14.4415C4.42666 14.4785 4.50572 14.5008 4.58682 14.5069C4.66791 14.513 4.74941 14.5029 4.82655 14.4771C4.90368 14.4513 4.97489 14.4104 5.03601 14.3567C5.09713 14.3031 5.14693 14.2378 5.18249 14.1646L7.62145 9.40102C7.63231 9.37939 7.63796 9.35553 7.63796 9.33133C7.63796 9.30714 7.63231 9.28327 7.62145 9.26165L7.10615 8.2555C7.09332 8.23047 7.07384 8.20946 7.04984 8.19479C7.02585 8.18013 6.99826 8.17236 6.97014 8.17236C6.94201 8.17236 6.91443 8.18013 6.89044 8.19479C6.86644 8.20946 6.84696 8.23047 6.83413 8.2555L4.09443 13.6078Z" fill="currentColor"/>
</svg>
