<svg width="16" height="16" viewBox="0 0 16 16" fill="none" xmlns="http://www.w3.org/2000/svg">
<path fill-rule="evenodd" clip-rule="evenodd" d="M8 13.5C11.0376 13.5 13.5 11.0376 13.5 8C13.5 4.96243 11.0376 2.5 8 2.5C4.96243 2.5 2.5 4.96243 2.5 8C2.5 11.0376 4.96243 13.5 8 13.5ZM8 15C11.866 15 15 11.866 15 8C15 4.13401 11.866 1 8 1C4.13401 1 1 4.13401 1 8C1 11.866 4.13401 15 8 15Z" fill="currentColor"/>
<path fill-rule="evenodd" clip-rule="evenodd" d="M5.24457 7.6542C4.91848 7.36772 4.91848 6.90326 5.24457 6.61678L7.40955 4.71486C7.73565 4.42838 8.26435 4.42838 8.59045 4.71486L10.7554 6.61678C11.0815 6.90326 11.0815 7.36772 10.7554 7.65419C10.4293 7.94067 9.90063 7.94067 9.57453 7.65419L8.83502 7.00454V10.7664C8.83502 11.1716 8.46117 11.5 8 11.5C7.53883 11.5 7.16498 11.1716 7.16498 10.7664V7.00454L6.42547 7.6542C6.09937 7.94067 5.57067 7.94067 5.24457 7.6542Z" fill="currentColor"/>
</svg>
