<svg width="16" height="16" viewBox="0 0 16 16" fill="none" xmlns="http://www.w3.org/2000/svg">
<path d="M5.88493 13.967C5.60693 14.292 5.14993 14.41 4.77193 14.213C3.76338 13.6882 2.89784 12.9256 2.25015 11.9912C1.60246 11.0568 1.19211 9.97874 1.05458 8.85016C0.91705 7.72159 1.05648 6.5765 1.46082 5.51391C1.86516 4.45131 2.52223 3.5032 3.37523 2.75154C4.22822 1.99988 5.25147 1.46729 6.35649 1.19984C7.4615 0.932392 8.61504 0.93812 9.71734 1.21653C10.8197 1.49494 11.8376 2.03766 12.683 2.79775C13.5285 3.55784 14.1762 4.51244 14.5699 5.579C14.7399 6.042 14.3719 6.5 13.8779 6.5C13.5319 6.5 13.2329 6.268 13.1039 5.946C12.626 4.7621 11.7513 3.78125 10.6296 3.17152C9.50788 2.56178 8.20905 2.36112 6.95563 2.6039C5.70222 2.84669 4.57225 3.51782 3.75935 4.50229C2.94644 5.48676 2.50121 6.72328 2.49993 8C2.49993 9.519 3.11593 10.894 4.10993 11.89L5.12093 10.879C5.39956 10.6003 5.73038 10.3792 6.09448 10.2284C6.45858 10.0776 6.84883 9.99995 7.24293 10H8.75693C8.97493 10 9.06993 10.252 8.92793 10.417L5.88493 13.967Z" fill="currentColor"/>
<path d="M6 6C6 5.46957 6.21071 4.96086 6.58579 4.58579C6.96086 4.21071 7.46957 4 8 4C8.53043 4 9.03914 4.21071 9.41421 4.58579C9.78929 4.96086 10 5.46957 10 6V6.5C10 7.03043 9.78929 7.53914 9.41421 7.91421C9.03914 8.28929 8.53043 8.5 8 8.5C7.46957 8.5 6.96086 8.28929 6.58579 7.91421C6.21071 7.53914 6 7.03043 6 6.5V6ZM13.263 8.138L9.378 12.048C9.75603 12.1616 10.1031 12.3601 10.3929 12.6282C10.6826 12.8962 10.9074 13.2269 11.05 13.595L14.876 9.748C15.169 9.482 14.884 8.641 14.618 8.378C14.339 8.103 13.515 7.826 13.263 8.138ZM10.25 14.364C10.2094 13.9692 10.0255 13.6029 9.73303 13.3346C9.44056 13.0663 9.05986 12.9145 8.663 12.908C8.416 13.399 8.163 14.157 8.013 14.638C7.9977 14.6849 7.99521 14.7351 8.00579 14.7833C8.01637 14.8315 8.03963 14.876 8.07318 14.9122C8.10673 14.9484 8.14933 14.975 8.19659 14.9892C8.24386 15.0034 8.29405 15.0047 8.342 14.993C8.902 14.866 9.822 14.63 10.251 14.363L10.25 14.364Z" fill="currentColor"/>
</svg>
