<svg width="16" height="16" viewBox="0 0 16 16" fill="none" xmlns="http://www.w3.org/2000/svg">
<path fill-rule="evenodd" clip-rule="evenodd" d="M8 15C9.85652 15 11.637 14.2625 12.9497 12.9497C14.2625 11.637 15 9.85652 15 8C15 6.14348 14.2625 4.36301 12.9497 3.05025C11.637 1.7375 9.85652 1 8 1C6.14348 1 4.36301 1.7375 3.05025 3.05025C1.7375 4.36301 1 6.14348 1 8C1 9.85652 1.7375 11.637 3.05025 12.9497C4.36301 14.2625 6.14348 15 8 15ZM5.121 10.879L4.111 11.889C3.34179 11.1198 2.81794 10.1398 2.6057 9.07291C2.39346 8.00601 2.50236 6.90013 2.91864 5.89512C3.33491 4.89012 4.03986 4.03112 4.94434 3.42676C5.84881 2.8224 6.91219 2.49983 8 2.49983C9.08781 2.49983 10.1512 2.8224 11.0557 3.42676C11.9601 4.03112 12.6651 4.89012 13.0814 5.89512C13.4976 6.90013 13.6065 8.00601 13.3943 9.07291C13.1821 10.1398 12.6582 11.1198 11.889 11.889L10.879 10.879C10.6004 10.6003 10.2696 10.3792 9.90545 10.2284C9.54135 10.0776 9.1511 9.99995 8.757 10H7.243C6.8489 9.99995 6.45865 10.0776 6.09455 10.2284C5.73045 10.3792 5.39963 10.6003 5.121 10.879Z" fill="currentColor"/>
<path d="M8 4C7.46957 4 6.96086 4.21071 6.58579 4.58579C6.21071 4.96086 6 5.46957 6 6V6.5C6 7.03043 6.21071 7.53914 6.58579 7.91421C6.96086 8.28929 7.46957 8.5 8 8.5C8.53043 8.5 9.03914 8.28929 9.41421 7.91421C9.78929 7.53914 10 7.03043 10 6.5V6C10 5.46957 9.78929 4.96086 9.41421 4.58579C9.03914 4.21071 8.53043 4 8 4Z" fill="currentColor"/>
</svg>
