<svg width="16" height="16" viewBox="0 0 16 16" fill="none" xmlns="http://www.w3.org/2000/svg">
<path d="M1 1.8C1 1.52 1 1.38 1.054 1.273C1.10215 1.17903 1.17881 1.10272 1.273 1.055C1.38 1 1.52 1 1.8 1H14.2C14.48 1 14.62 1 14.727 1.054C14.821 1.10215 14.8973 1.17881 14.945 1.273C15 1.38 15 1.52 15 1.8V2.2C15 2.48 15 2.62 14.945 2.727C14.8973 2.82119 14.821 2.89785 14.727 2.946C14.62 3 14.48 3 14.2 3H1.8C1.52 3 1.38 3 1.273 2.946C1.17903 2.89785 1.10272 2.82119 1.055 2.727C1 2.62 1 2.48 1 2.2V1.8ZM1 13.8C1 13.52 1 13.38 1.054 13.273C1.10215 13.179 1.17881 13.1027 1.273 13.055C1.38 13 1.52 13 1.8 13H14.2C14.48 13 14.62 13 14.727 13.055C14.8208 13.1029 14.8971 13.1792 14.945 13.273C15 13.38 15 13.52 15 13.8V14.2C15 14.48 15 14.62 14.945 14.727C14.8971 14.8208 14.8208 14.8971 14.727 14.945C14.62 15 14.48 15 14.2 15H1.8C1.52 15 1.38 15 1.273 14.945C1.17919 14.8971 1.10289 14.8208 1.055 14.727C1 14.62 1 14.48 1 14.2V13.8ZM1 9.8C1 9.52 1 9.38 1.054 9.273C1.10215 9.17903 1.17881 9.10272 1.273 9.055C1.38 9 1.52 9 1.8 9H14.2C14.48 9 14.62 9 14.727 9.055C14.8208 9.10289 14.8971 9.17918 14.945 9.273C15 9.38 15 9.52 15 9.8V10.2C15 10.48 15 10.62 14.945 10.727C14.8971 10.8208 14.8208 10.8971 14.727 10.945C14.62 11 14.48 11 14.2 11H1.8C1.52 11 1.38 11 1.273 10.945C1.17919 10.8971 1.10289 10.8208 1.055 10.727C1 10.62 1 10.48 1 10.2V9.8ZM1 5.8C1 5.52 1 5.38 1.054 5.273C1.10215 5.17903 1.17881 5.10272 1.273 5.055C1.38 5 1.52 5 1.8 5H14.2C14.48 5 14.62 5 14.727 5.054C14.821 5.10215 14.8973 5.17881 14.945 5.273C15 5.38 15 5.52 15 5.8V6.2C15 6.48 15 6.62 14.945 6.727C14.8971 6.82082 14.8208 6.89711 14.727 6.945C14.62 7 14.48 7 14.2 7H1.8C1.52 7 1.38 7 1.273 6.946C1.17903 6.89785 1.10272 6.82119 1.055 6.727C1 6.62 1 6.48 1 6.2V5.8Z" fill="currentColor"/>
</svg>
