<svg width="16" height="16" viewBox="0 0 16 16" fill="none" xmlns="http://www.w3.org/2000/svg">
<path d="M2.99998 1.00005C2.46956 1.00005 1.96085 1.21077 1.58578 1.58584C1.21071 1.96091 1 2.46961 1 3.00004V13C1 13.5304 1.21071 14.0391 1.58578 14.4142C1.96085 14.7892 2.46956 14.9999 2.99998 14.9999H12.9999C13.5303 14.9999 14.039 14.7892 14.4141 14.4142C14.7892 14.0391 14.9999 13.5304 14.9999 13V3.00004C14.9999 2.46961 14.7892 1.96091 14.4141 1.58584C14.039 1.21077 13.5303 1.00005 12.9999 1.00005H2.99998ZM6.91395 4.00003H8.65194L8.49994 9.60199H7.06995L6.91395 4.00003ZM8.72294 11.164C8.71983 11.4118 8.62001 11.6486 8.44477 11.8238C8.26953 11.999 8.03275 12.0989 7.78495 12.102C7.65979 12.1061 7.53508 12.085 7.41825 12.0399C7.30141 11.9948 7.19484 11.9267 7.10485 11.8396C7.01487 11.7525 6.94331 11.6482 6.89445 11.5329C6.84558 11.4176 6.8204 11.2937 6.8204 11.1685C6.8204 11.0433 6.84558 10.9193 6.89445 10.804C6.94331 10.6887 7.01487 10.5844 7.10485 10.4973C7.19484 10.4102 7.30141 10.3421 7.41825 10.2971C7.53508 10.252 7.65979 10.2309 7.78495 10.235C8.28494 10.235 8.71894 10.652 8.72294 11.164Z" fill="currentColor"/>
</svg>
