<svg width="16" height="16" viewBox="0 0 16 16" fill="none" xmlns="http://www.w3.org/2000/svg">
<path d="M7.02003 5C7.02003 3.343 7.50603 1 8.10503 1C8.70503 1 9.19003 3.343 9.19003 5C9.19003 5.277 9.16003 5.518 9.11003 5.726C8.79631 5.57598 8.45277 5.49873 8.10503 5.5C7.75763 5.49888 7.41444 5.57613 7.10103 5.726C7.04521 5.48809 7.01802 5.24436 7.02003 5ZM6.08203 6.777C5.9166 6.81919 5.75395 6.87163 5.59503 6.934C3.93803 7.577 1.78503 8.9 2.01703 9.409C2.25003 9.918 4.77903 9.421 6.43603 8.777C6.1162 8.42842 5.93791 7.97307 5.93603 7.5C5.93603 7.245 5.98703 7.001 6.08203 6.777ZM8.01603 8.497C7.45903 8.455 7.02103 8.025 7.02103 7.5C7.02103 6.948 7.50603 6.5 8.10603 6.5C8.30003 6.5 8.48203 6.547 8.64003 6.63C8.69003 6.655 8.73603 6.684 8.78003 6.716C9.03003 6.9 9.19003 7.182 9.19003 7.5C9.18789 7.66554 9.14384 7.82785 9.06201 7.97176C8.98017 8.11568 8.8632 8.23652 8.72203 8.323C8.53761 8.43998 8.32342 8.50143 8.10503 8.5M10.156 6.846C10.233 7.051 10.276 7.271 10.276 7.5C10.276 8.014 10.066 8.482 9.72003 8.836C11.374 9.45 13.757 9.902 13.983 9.409C14.215 8.899 12.062 7.577 10.405 6.934C10.3233 6.90219 10.2396 6.87285 10.156 6.846ZM7.51203 9.424C7.90114 9.52584 8.30992 9.52584 8.69903 9.424L9.12803 12.98C9.16703 13.304 9.38203 13.588 9.69803 13.734C9.86658 13.8069 10.0106 13.9267 10.1129 14.0792C10.2152 14.2317 10.2715 14.4104 10.275 14.594V15H5.93503V14.595C5.93503 14.23 6.15903 13.897 6.51303 13.735C6.66469 13.6684 6.79674 13.5641 6.89654 13.4319C6.99634 13.2997 7.06055 13.1441 7.08303 12.98L7.51203 9.424Z" fill="currentColor"/>
</svg>
